<svg width="250" height="250" viewBox="0 0 250 250" fill="none" xmlns="http://www.w3.org/2000/svg">
<path d="M33.0366 84.358C33.0366 75.7793 39.991 68.8248 48.5697 68.8248C57.1484 68.8248 64.1029 75.7792 64.1029 84.3579V187.713H38.0366C35.2752 187.713 33.0366 185.475 33.0366 182.713V84.358Z" fill="#0094FF" fill-opacity="0.97"/>
<path d="M186.052 83.1673C186.052 74.5812 193.012 67.6208 201.598 67.6208C210.184 67.6208 217.145 74.5812 217.145 83.1673V184C217.145 186.761 214.906 189 212.145 189H186.052V83.1673Z" fill="#0094FF" fill-opacity="0.56"/>
<path d="M192.364 70.6595C198.746 65.9564 208.35 66.7591 213.856 72.4558C219.436 78.2294 218.67 86.8111 212.155 91.5278L175.401 118.135L170.283 86.9316L192.364 70.6595Z" fill="#0094FF" fill-opacity="0.87"/>
<path d="M36.6552 73.6353C41.6329 67.1363 51.1718 65.514 57.9611 70.0113L130.122 117.814L170.431 86.7806L175.366 118.15L130.556 153.136L39.9775 93.5747C33.1549 89.0884 31.6656 80.1501 36.6552 73.6353Z" fill="#0094FF" fill-opacity="0.84"/>
</svg>
