<svg width="375" height="294" viewBox="0 0 375 294" fill="none" xmlns="http://www.w3.org/2000/svg">
<rect x="13" width="343" height="254" rx="16" fill="white"/>
<g filter="url(#filter0_dd_104_721)">
<rect x="13" width="343" height="254" rx="16" fill="white" fill-opacity="0.01" shape-rendering="crispEdges"/>
</g>
<rect x="145" y="20" width="80" height="80" rx="40" fill="url(#paint0_linear_104_721)"/>
<path d="M185 50V60L191.667 63.3333" stroke="white" stroke-width="3.33333" stroke-linecap="round" stroke-linejoin="round"/>
<path d="M185 76.6666C194.205 76.6666 201.667 69.2047 201.667 60C201.667 50.7952 194.205 43.3333 185 43.3333C175.795 43.3333 168.333 50.7952 168.333 60C168.333 69.2047 175.795 76.6666 185 76.6666Z" stroke="white" stroke-width="3.33333" stroke-linecap="round" stroke-linejoin="round"/>
<rect x="121" y="112" width="128" height="16" rx="4" fill="#D1D5DC"/>
<rect x="137" y="136" width="96" height="32" rx="14" fill="url(#paint1_linear_104_721)"/>
<path d="M149.921 156.181C149.397 156.181 148.926 156.096 148.51 155.927C148.093 155.754 147.738 155.508 147.445 155.189C147.156 154.867 146.933 154.478 146.776 154.022C146.62 153.563 146.542 153.048 146.542 152.475V152.465C146.542 151.71 146.679 151.057 146.952 150.507C147.226 149.953 147.613 149.527 148.114 149.228C148.616 148.925 149.206 148.773 149.887 148.773C150.443 148.773 150.941 148.873 151.381 149.071C151.82 149.27 152.178 149.547 152.455 149.901C152.735 150.256 152.909 150.668 152.978 151.137L152.987 151.186H151.522L151.513 151.137C151.415 150.785 151.223 150.512 150.937 150.316C150.65 150.121 150.3 150.023 149.887 150.023C149.509 150.023 149.182 150.123 148.905 150.321C148.632 150.517 148.42 150.797 148.271 151.161C148.121 151.522 148.046 151.952 148.046 152.45V152.46C148.046 152.841 148.09 153.184 148.178 153.49C148.266 153.793 148.393 154.052 148.559 154.267C148.725 154.481 148.925 154.646 149.159 154.76C149.394 154.874 149.656 154.931 149.945 154.931C150.268 154.931 150.552 154.869 150.8 154.745C151.047 154.621 151.241 154.449 151.381 154.228C151.521 154.006 151.596 153.747 151.605 153.451L151.61 153.319H150.087V152.245H153.046V153.139C153.046 153.604 152.974 154.024 152.831 154.398C152.688 154.773 152.479 155.093 152.206 155.36C151.933 155.624 151.602 155.827 151.215 155.971C150.831 156.111 150.399 156.181 149.921 156.181ZM156.684 156.112C156.14 156.112 155.671 156 155.277 155.775C154.887 155.548 154.586 155.225 154.374 154.809C154.162 154.392 154.057 153.896 154.057 153.319V153.314C154.057 152.745 154.161 152.25 154.369 151.83C154.581 151.41 154.879 151.085 155.263 150.854C155.65 150.622 156.104 150.507 156.625 150.507C157.149 150.507 157.602 150.619 157.982 150.844C158.363 151.068 158.656 151.382 158.861 151.786C159.066 152.19 159.169 152.663 159.169 153.207V153.651H154.77V152.758H158.485L157.816 153.603V153.031C157.816 152.709 157.766 152.44 157.665 152.226C157.567 152.011 157.431 151.85 157.255 151.742C157.082 151.632 156.881 151.576 156.649 151.576C156.422 151.576 156.218 151.633 156.039 151.747C155.863 151.858 155.723 152.022 155.619 152.24C155.518 152.455 155.468 152.719 155.468 153.031V153.607C155.468 153.91 155.518 154.169 155.619 154.384C155.72 154.599 155.863 154.763 156.049 154.877C156.234 154.991 156.456 155.048 156.713 155.048C156.921 155.048 157.099 155.017 157.245 154.955C157.392 154.893 157.509 154.822 157.597 154.74C157.688 154.656 157.75 154.579 157.782 154.511L157.797 154.481H159.125L159.115 154.53C159.073 154.7 158.996 154.877 158.886 155.062C158.775 155.245 158.622 155.416 158.427 155.575C158.235 155.735 157.994 155.865 157.704 155.966C157.418 156.063 157.077 156.112 156.684 156.112ZM160.336 156V150.624H161.762V151.454H161.85C161.973 151.161 162.165 150.93 162.426 150.761C162.686 150.591 163.008 150.507 163.393 150.507C163.992 150.507 164.447 150.683 164.76 151.034C165.076 151.382 165.233 151.879 165.233 152.523V156H163.808V152.846C163.808 152.465 163.728 152.177 163.568 151.981C163.409 151.786 163.16 151.688 162.821 151.688C162.603 151.688 162.414 151.739 162.255 151.84C162.099 151.938 161.977 152.076 161.889 152.255C161.804 152.434 161.762 152.646 161.762 152.89V156H160.336ZM168.979 156.112C168.435 156.112 167.966 156 167.572 155.775C167.182 155.548 166.881 155.225 166.669 154.809C166.457 154.392 166.352 153.896 166.352 153.319V153.314C166.352 152.745 166.456 152.25 166.664 151.83C166.876 151.41 167.174 151.085 167.558 150.854C167.945 150.622 168.399 150.507 168.92 150.507C169.444 150.507 169.896 150.619 170.277 150.844C170.658 151.068 170.951 151.382 171.156 151.786C171.361 152.19 171.464 152.663 171.464 153.207V153.651H167.064V152.758H170.78L170.111 153.603V153.031C170.111 152.709 170.061 152.44 169.96 152.226C169.862 152.011 169.726 151.85 169.55 151.742C169.377 151.632 169.175 151.576 168.944 151.576C168.716 151.576 168.513 151.633 168.334 151.747C168.158 151.858 168.018 152.022 167.914 152.24C167.813 152.455 167.763 152.719 167.763 153.031V153.607C167.763 153.91 167.813 154.169 167.914 154.384C168.015 154.599 168.158 154.763 168.344 154.877C168.529 154.991 168.751 155.048 169.008 155.048C169.216 155.048 169.394 155.017 169.54 154.955C169.687 154.893 169.804 154.822 169.892 154.74C169.983 154.656 170.045 154.579 170.077 154.511L170.092 154.481H171.42L171.41 154.53C171.368 154.7 171.291 154.877 171.181 155.062C171.07 155.245 170.917 155.416 170.722 155.575C170.53 155.735 170.289 155.865 169.999 155.966C169.713 156.063 169.372 156.112 168.979 156.112ZM172.631 156V150.624H174.057V151.459H174.145C174.232 151.166 174.394 150.94 174.628 150.78C174.862 150.618 175.154 150.536 175.502 150.536C175.6 150.536 175.694 150.543 175.785 150.556C175.88 150.569 175.963 150.585 176.034 150.604V151.85C175.927 151.824 175.818 151.804 175.707 151.791C175.6 151.775 175.491 151.767 175.38 151.767C175.11 151.767 174.875 151.817 174.677 151.918C174.478 152.016 174.325 152.156 174.218 152.338C174.11 152.52 174.057 152.738 174.057 152.992V156H172.631ZM178.354 156.083C178.015 156.083 177.712 156.018 177.445 155.888C177.182 155.754 176.975 155.567 176.825 155.326C176.675 155.082 176.601 154.797 176.601 154.472V154.462C176.601 154.14 176.68 153.863 176.84 153.632C177.003 153.401 177.239 153.22 177.548 153.09C177.86 152.956 178.24 152.877 178.686 152.851L180.688 152.729V153.598L178.9 153.715C178.594 153.731 178.367 153.796 178.217 153.91C178.067 154.024 177.992 154.179 177.992 154.374V154.384C177.992 154.589 178.07 154.75 178.227 154.867C178.383 154.984 178.585 155.043 178.832 155.043C179.053 155.043 179.25 154.999 179.423 154.911C179.595 154.823 179.732 154.704 179.833 154.555C179.934 154.402 179.984 154.231 179.984 154.042V152.328C179.984 152.094 179.906 151.915 179.75 151.791C179.597 151.664 179.374 151.601 179.081 151.601C178.824 151.601 178.614 151.645 178.451 151.732C178.292 151.817 178.184 151.939 178.129 152.099L178.119 152.118H176.801L176.806 152.074C176.845 151.758 176.964 151.483 177.162 151.249C177.364 151.015 177.634 150.832 177.973 150.702C178.314 150.572 178.71 150.507 179.159 150.507C179.634 150.507 180.038 150.58 180.37 150.727C180.702 150.87 180.954 151.078 181.127 151.352C181.303 151.622 181.391 151.947 181.391 152.328V156H179.984V155.287H179.896C179.805 155.453 179.683 155.596 179.53 155.717C179.381 155.834 179.205 155.925 179.003 155.99C178.804 156.052 178.588 156.083 178.354 156.083ZM185.019 156.02C184.368 156.02 183.899 155.906 183.612 155.678C183.326 155.447 183.183 155.071 183.183 154.55V151.698H182.353V150.624H183.183V149.34H184.623V150.624H185.731V151.698H184.623V154.223C184.623 154.464 184.677 154.641 184.784 154.755C184.895 154.866 185.071 154.921 185.312 154.921C185.403 154.921 185.478 154.919 185.536 154.916C185.598 154.91 185.663 154.903 185.731 154.896V155.956C185.644 155.972 185.538 155.987 185.414 156C185.29 156.013 185.159 156.02 185.019 156.02ZM189.242 156.112C188.699 156.112 188.23 156 187.836 155.775C187.445 155.548 187.144 155.225 186.933 154.809C186.721 154.392 186.615 153.896 186.615 153.319V153.314C186.615 152.745 186.719 152.25 186.928 151.83C187.139 151.41 187.437 151.085 187.821 150.854C188.209 150.622 188.663 150.507 189.184 150.507C189.708 150.507 190.16 150.619 190.541 150.844C190.922 151.068 191.215 151.382 191.42 151.786C191.625 152.19 191.728 152.663 191.728 153.207V153.651H187.328V152.758H191.044L190.375 153.603V153.031C190.375 152.709 190.325 152.44 190.224 152.226C190.126 152.011 189.989 151.85 189.813 151.742C189.641 151.632 189.439 151.576 189.208 151.576C188.98 151.576 188.777 151.633 188.598 151.747C188.422 151.858 188.282 152.022 188.178 152.24C188.077 152.455 188.026 152.719 188.026 153.031V153.607C188.026 153.91 188.077 154.169 188.178 154.384C188.279 154.599 188.422 154.763 188.607 154.877C188.793 154.991 189.014 155.048 189.271 155.048C189.48 155.048 189.657 155.017 189.804 154.955C189.95 154.893 190.067 154.822 190.155 154.74C190.246 154.656 190.308 154.579 190.341 154.511L190.355 154.481H191.684L191.674 154.53C191.632 154.7 191.555 154.877 191.444 155.062C191.334 155.245 191.181 155.416 190.985 155.575C190.793 155.735 190.552 155.865 190.263 155.966C189.976 156.063 189.636 156.112 189.242 156.112ZM195.614 156V148.954H198.549C199.083 148.954 199.537 149.045 199.911 149.228C200.289 149.407 200.575 149.664 200.771 149.999C200.969 150.334 201.068 150.733 201.068 151.195V151.205C201.068 151.658 200.956 152.064 200.731 152.426C200.51 152.784 200.198 153.043 199.794 153.202L201.278 156H199.608L198.295 153.422C198.285 153.422 198.274 153.422 198.261 153.422C198.248 153.422 198.236 153.422 198.227 153.422H197.089V156H195.614ZM197.089 152.348H198.388C198.756 152.348 199.042 152.25 199.247 152.055C199.455 151.856 199.56 151.583 199.56 151.234V151.225C199.56 150.883 199.454 150.611 199.242 150.409C199.031 150.207 198.739 150.106 198.368 150.106H197.089V152.348ZM204.604 156.112C204.06 156.112 203.591 156 203.197 155.775C202.807 155.548 202.506 155.225 202.294 154.809C202.082 154.392 201.977 153.896 201.977 153.319V153.314C201.977 152.745 202.081 152.25 202.289 151.83C202.501 151.41 202.799 151.085 203.183 150.854C203.57 150.622 204.024 150.507 204.545 150.507C205.069 150.507 205.521 150.619 205.902 150.844C206.283 151.068 206.576 151.382 206.781 151.786C206.986 152.19 207.089 152.663 207.089 153.207V153.651H202.689V152.758H206.405L205.736 153.603V153.031C205.736 152.709 205.686 152.44 205.585 152.226C205.487 152.011 205.351 151.85 205.175 151.742C205.002 151.632 204.8 151.576 204.569 151.576C204.341 151.576 204.138 151.633 203.959 151.747C203.783 151.858 203.643 152.022 203.539 152.24C203.438 152.455 203.388 152.719 203.388 153.031V153.607C203.388 153.91 203.438 154.169 203.539 154.384C203.64 154.599 203.783 154.763 203.969 154.877C204.154 154.991 204.376 155.048 204.633 155.048C204.841 155.048 205.019 155.017 205.165 154.955C205.312 154.893 205.429 154.822 205.517 154.74C205.608 154.656 205.67 154.579 205.702 154.511L205.717 154.481H207.045L207.035 154.53C206.993 154.7 206.916 154.877 206.806 155.062C206.695 155.245 206.542 155.416 206.347 155.575C206.155 155.735 205.914 155.865 205.624 155.966C205.338 156.063 204.997 156.112 204.604 156.112ZM208.256 157.782V150.624H209.682V151.454H209.77C209.864 151.262 209.988 151.098 210.141 150.961C210.297 150.824 210.479 150.72 210.688 150.648C210.896 150.574 211.127 150.536 211.381 150.536C211.83 150.536 212.217 150.648 212.543 150.873C212.868 151.098 213.119 151.417 213.295 151.83C213.474 152.24 213.563 152.732 213.563 153.305V153.314C213.563 153.891 213.476 154.385 213.3 154.799C213.124 155.212 212.873 155.53 212.548 155.751C212.222 155.972 211.833 156.083 211.381 156.083C211.133 156.083 210.904 156.046 210.692 155.971C210.484 155.893 210.3 155.784 210.141 155.644C209.984 155.504 209.861 155.336 209.77 155.141H209.682V157.782H208.256ZM210.893 154.901C211.146 154.901 211.363 154.838 211.542 154.711C211.724 154.584 211.864 154.402 211.962 154.164C212.063 153.926 212.113 153.643 212.113 153.314V153.305C212.113 152.976 212.063 152.693 211.962 152.455C211.864 152.217 211.724 152.035 211.542 151.908C211.363 151.781 211.146 151.718 210.893 151.718C210.642 151.718 210.424 151.781 210.238 151.908C210.056 152.035 209.914 152.217 209.813 152.455C209.716 152.689 209.667 152.973 209.667 153.305V153.314C209.667 153.64 209.717 153.923 209.818 154.164C209.919 154.402 210.061 154.584 210.243 154.711C210.429 154.838 210.645 154.901 210.893 154.901ZM214.779 156V148.568H216.205V156H214.779ZM218.319 157.895C218.238 157.895 218.153 157.893 218.065 157.89C217.978 157.886 217.891 157.883 217.807 157.88V156.806C217.855 156.812 217.912 156.815 217.978 156.815C218.046 156.819 218.113 156.82 218.178 156.82C218.432 156.82 218.633 156.77 218.783 156.669C218.933 156.568 219.032 156.413 219.081 156.205L219.13 156L217.24 150.624H218.808L220.092 155.263L219.765 154.696H220.189L219.877 155.263L221.161 150.624H222.665L220.834 155.995C220.678 156.467 220.487 156.841 220.263 157.118C220.041 157.398 219.773 157.597 219.457 157.714C219.141 157.834 218.762 157.895 218.319 157.895Z" fill="white"/>
<rect x="33" y="184" width="145.5" height="48" rx="14" fill="#F0FDF4"/>
<rect x="73.75" y="196" width="64" height="8" rx="4" fill="#D1D5DC"/>
<rect x="81.75" y="212" width="48" height="8" rx="4" fill="#D1D5DC"/>
<rect x="190.5" y="184" width="145.5" height="48" rx="14" fill="#EFF6FF"/>
<rect x="231.25" y="196" width="64" height="8" rx="4" fill="#8EC5FF"/>
<rect x="239.25" y="212" width="48" height="8" rx="4" fill="#BEDBFF"/>
<defs>
<filter id="filter0_dd_104_721" x="-7" y="0" width="383" height="294" filterUnits="userSpaceOnUse" color-interpolation-filters="sRGB">
<feFlood flood-opacity="0" result="BackgroundImageFix"/>
<feColorMatrix in="SourceAlpha" type="matrix" values="0 0 0 0 0 0 0 0 0 0 0 0 0 0 0 0 0 0 127 0" result="hardAlpha"/>
<feMorphology radius="6" operator="erode" in="SourceAlpha" result="effect1_dropShadow_104_721"/>
<feOffset dy="8"/>
<feGaussianBlur stdDeviation="5"/>
<feComposite in2="hardAlpha" operator="out"/>
<feColorMatrix type="matrix" values="0 0 0 0 0 0 0 0 0 0 0 0 0 0 0 0 0 0 0.1 0"/>
<feBlend mode="normal" in2="BackgroundImageFix" result="effect1_dropShadow_104_721"/>
<feColorMatrix in="SourceAlpha" type="matrix" values="0 0 0 0 0 0 0 0 0 0 0 0 0 0 0 0 0 0 127 0" result="hardAlpha"/>
<feMorphology radius="5" operator="erode" in="SourceAlpha" result="effect2_dropShadow_104_721"/>
<feOffset dy="20"/>
<feGaussianBlur stdDeviation="12.5"/>
<feComposite in2="hardAlpha" operator="out"/>
<feColorMatrix type="matrix" values="0 0 0 0 0 0 0 0 0 0 0 0 0 0 0 0 0 0 0.1 0"/>
<feBlend mode="normal" in2="effect1_dropShadow_104_721" result="effect2_dropShadow_104_721"/>
<feBlend mode="normal" in="SourceGraphic" in2="effect2_dropShadow_104_721" result="shape"/>
</filter>
<linearGradient id="paint0_linear_104_721" x1="145" y1="20" x2="225" y2="100" gradientUnits="userSpaceOnUse">
<stop offset="0.447115" stop-color="#2B7FFF"/>
<stop offset="1" stop-color="#2B7FFF"/>
</linearGradient>
<linearGradient id="paint1_linear_104_721" x1="137" y1="152" x2="233" y2="152" gradientUnits="userSpaceOnUse">
<stop stop-color="#2B7FFF"/>
<stop offset="1" stop-color="#2B7FFF"/>
</linearGradient>
</defs>
</svg>
