<svg width="1024" height="1024" viewBox="0 0 1024 1024" fill="none" xmlns="http://www.w3.org/2000/svg">
<path d="M200.291 360.014C200.291 330.551 224.176 306.666 253.639 306.666C283.102 306.666 306.987 330.551 306.987 360.014V736.35H205.291C202.53 736.35 200.291 734.111 200.291 731.35V360.014Z" fill="#0094FF" fill-opacity="0.97"/>
<path d="M725.819 355.709C725.819 326.22 749.725 302.315 779.213 302.315C808.702 302.315 832.607 326.22 832.607 355.709V736C832.607 738.761 830.368 741 827.607 741H725.819V355.709Z" fill="#0094FF" fill-opacity="0.56"/>
<path d="M747.173 313.548C769.27 296.411 802.398 299.199 821.306 319.786C840.471 340.654 837.692 371.788 815.129 388.977L689.238 484.882L671.661 372.107L747.173 313.548Z" fill="#0094FF" fill-opacity="0.87"/>
<path fill-rule="evenodd" clip-rule="evenodd" d="M212.718 324.051C229.814 300.563 262.93 294.947 286.686 311.507L533.731 483.725L672.169 371.56L689.114 484.936L535.217 611.382L224.927 396.669C201.055 380.15 195.581 347.597 212.718 324.051Z" fill="#0094FF" fill-opacity="0.84"/>
</svg>
