<svg width="375" height="248" viewBox="0 0 375 248" fill="none" xmlns="http://www.w3.org/2000/svg">
<rect x="14" width="345" height="208" rx="16" fill="white"/>
<g filter="url(#filter0_dd_104_29)">
<rect x="14" width="345" height="208" rx="16" fill="white" fill-opacity="0.01" shape-rendering="crispEdges"/>
</g>
<rect x="34" y="20" width="40" height="40" rx="20" fill="#2B7FFF"/>
<path d="M53.9912 45.2324C53.2712 45.2324 52.6423 45.1162 52.1045 44.8838C51.5713 44.6468 51.1475 44.3232 50.833 43.9131C50.5231 43.4984 50.3431 43.0244 50.293 42.4912L50.2861 42.416H51.5166L51.5234 42.4912C51.5553 42.8193 51.6807 43.1042 51.8994 43.3457C52.1227 43.5827 52.4189 43.7673 52.7881 43.8994C53.1618 44.0316 53.5856 44.0977 54.0596 44.0977C54.5062 44.0977 54.9027 44.027 55.249 43.8857C55.5999 43.7399 55.8757 43.5394 56.0762 43.2842C56.2767 43.029 56.377 42.735 56.377 42.4023V42.3955C56.377 41.9854 56.2266 41.6413 55.9258 41.3633C55.625 41.0807 55.1351 40.8643 54.4561 40.7139L53.3623 40.4746C52.3734 40.2559 51.6533 39.9186 51.2021 39.4629C50.7555 39.0026 50.5322 38.4147 50.5322 37.6992V37.6924C50.5368 37.1455 50.6849 36.6624 50.9766 36.2432C51.2728 35.8239 51.6807 35.4958 52.2002 35.2588C52.7243 35.0218 53.3258 34.9033 54.0049 34.9033C54.6611 34.9033 55.2422 35.0218 55.748 35.2588C56.2539 35.4912 56.6549 35.8057 56.9512 36.2021C57.252 36.5986 57.4183 37.043 57.4502 37.5352L57.457 37.6309H56.2266L56.2129 37.542C56.1673 37.2503 56.0488 36.9928 55.8574 36.7695C55.666 36.5417 55.4108 36.3617 55.0918 36.2295C54.7728 36.0973 54.3991 36.0335 53.9707 36.0381C53.5605 36.0381 53.1914 36.1019 52.8633 36.2295C52.5352 36.3571 52.2731 36.5417 52.0771 36.7832C51.8857 37.0202 51.79 37.3118 51.79 37.6582V37.665C51.79 38.057 51.9359 38.3874 52.2275 38.6562C52.5192 38.9251 53 39.1325 53.6699 39.2783L54.7637 39.5244C55.4518 39.6748 56.0055 39.8708 56.4248 40.1123C56.8441 40.3538 57.1494 40.6501 57.3408 41.001C57.5368 41.3473 57.6348 41.7575 57.6348 42.2314V42.2383C57.6348 42.8535 57.4844 43.3844 57.1836 43.8311C56.8828 44.2777 56.459 44.624 55.9121 44.8701C55.3652 45.1117 54.7249 45.2324 53.9912 45.2324Z" fill="white"/>
<rect x="86" y="26" width="128" height="12" rx="4" fill="#D1D5DC"/>
<rect x="86" y="46" width="96" height="8" rx="4" fill="#E5E7EB"/>
<rect x="34" y="72" width="305" height="8" rx="4" fill="#F3F4F6"/>
<rect x="34" y="88" width="286.66" height="8" rx="4" fill="#F3F4F6"/>
<rect x="34" y="104" width="229.33" height="8" rx="4" fill="#F3F4F6"/>
<rect x="34.5" y="124.5" width="304" height="63" rx="13.5" fill="#EFF6FF"/>
<rect x="34.5" y="124.5" width="304" height="63" rx="13.5" stroke="#BEDBFF"/>
<g clip-path="url(#clip0_104_29)">
<path d="M54.3447 138.876C54.3733 138.723 54.4544 138.585 54.5741 138.486C54.6938 138.386 54.8445 138.332 55.0001 138.332C55.1556 138.332 55.3063 138.386 55.426 138.486C55.5457 138.585 55.6268 138.723 55.6554 138.876L56.3561 142.581C56.4058 142.845 56.5338 143.087 56.7234 143.277C56.913 143.466 57.1553 143.594 57.4187 143.644L61.1241 144.345C61.277 144.373 61.4151 144.454 61.5145 144.574C61.6139 144.694 61.6683 144.844 61.6683 145C61.6683 145.156 61.6139 145.306 61.5145 145.426C61.4151 145.546 61.277 145.627 61.1241 145.655L57.4187 146.356C57.1553 146.406 56.913 146.534 56.7234 146.723C56.5338 146.913 56.4058 147.155 56.3561 147.419L55.6554 151.124C55.6268 151.277 55.5457 151.415 55.426 151.514C55.3063 151.614 55.1556 151.668 55.0001 151.668C54.8445 151.668 54.6938 151.614 54.5741 151.514C54.4544 151.415 54.3733 151.277 54.3447 151.124L53.6441 147.419C53.5943 147.155 53.4663 146.913 53.2767 146.723C53.0871 146.534 52.8448 146.406 52.5814 146.356L48.8761 145.655C48.7231 145.627 48.585 145.546 48.4856 145.426C48.3862 145.306 48.3318 145.156 48.3318 145C48.3318 144.844 48.3862 144.694 48.4856 144.574C48.585 144.454 48.7231 144.373 48.8761 144.345L52.5814 143.644C52.8448 143.594 53.0871 143.466 53.2767 143.277C53.4663 143.087 53.5943 142.845 53.6441 142.581L54.3447 138.876Z" stroke="#2B7FFF" stroke-width="1.33333" stroke-linecap="round" stroke-linejoin="round"/>
<path d="M60.3333 138.333V141" stroke="#2B7FFF" stroke-width="1.33333" stroke-linecap="round" stroke-linejoin="round"/>
<path d="M61.6667 139.667H59" stroke="#2B7FFF" stroke-width="1.33333" stroke-linecap="round" stroke-linejoin="round"/>
<path d="M49.6666 151.667C50.403 151.667 50.9999 151.07 50.9999 150.333C50.9999 149.597 50.403 149 49.6666 149C48.9302 149 48.3333 149.597 48.3333 150.333C48.3333 151.07 48.9302 151.667 49.6666 151.667Z" stroke="#2B7FFF" stroke-width="1.33333" stroke-linecap="round" stroke-linejoin="round"/>
</g>
<path d="M74.7656 146.223V145.301H76.2109C76.5495 145.301 76.8125 145.215 77 145.043C77.1901 144.868 77.2852 144.621 77.2852 144.301V144.293C77.2852 143.973 77.1901 143.727 77 143.555C76.8125 143.383 76.5495 143.297 76.2109 143.297H74.7656V142.363H76.5C76.8958 142.363 77.2422 142.444 77.5391 142.605C77.8359 142.764 78.0664 142.988 78.2305 143.277C78.3971 143.566 78.4805 143.904 78.4805 144.289V144.297C78.4805 144.685 78.3971 145.023 78.2305 145.312C78.0664 145.602 77.8359 145.826 77.5391 145.984C77.2422 146.143 76.8958 146.223 76.5 146.223H74.7656ZM74.1758 148V142.363H75.3555V148H74.1758ZM79.4531 148V143.699H80.5938V144.367H80.6641C80.7344 144.133 80.8633 143.952 81.0508 143.824C81.2383 143.694 81.4714 143.629 81.75 143.629C81.8281 143.629 81.9036 143.634 81.9766 143.645C82.0521 143.655 82.1185 143.668 82.1758 143.684V144.68C82.0898 144.659 82.0026 144.643 81.9141 144.633C81.8281 144.62 81.7409 144.613 81.6523 144.613C81.4362 144.613 81.2487 144.654 81.0898 144.734C80.931 144.812 80.8086 144.924 80.7227 145.07C80.6367 145.216 80.5938 145.391 80.5938 145.594V148H79.4531ZM84.7539 148.09C84.3138 148.09 83.9349 148.001 83.6172 147.824C83.2995 147.645 83.056 147.388 82.8867 147.055C82.7174 146.719 82.6328 146.318 82.6328 145.852V145.844C82.6328 145.38 82.7188 144.982 82.8906 144.648C83.0625 144.315 83.306 144.059 83.6211 143.879C83.9388 143.697 84.3164 143.605 84.7539 143.605C85.1914 143.605 85.5677 143.695 85.8828 143.875C86.2005 144.055 86.4453 144.312 86.6172 144.648C86.7891 144.982 86.875 145.38 86.875 145.844V145.852C86.875 146.318 86.7904 146.719 86.6211 147.055C86.4518 147.388 86.2083 147.645 85.8906 147.824C85.5755 148.001 85.1966 148.09 84.7539 148.09ZM84.7539 147.195C84.957 147.195 85.1289 147.142 85.2695 147.035C85.4102 146.928 85.5182 146.775 85.5938 146.574C85.6693 146.374 85.707 146.133 85.707 145.852V145.844C85.707 145.562 85.6693 145.323 85.5938 145.125C85.5182 144.924 85.4089 144.771 85.2656 144.664C85.125 144.555 84.9544 144.5 84.7539 144.5C84.5534 144.5 84.3815 144.555 84.2383 144.664C84.0977 144.771 83.9896 144.924 83.9141 145.125C83.8385 145.323 83.8008 145.562 83.8008 145.844V145.852C83.8008 146.135 83.8372 146.378 83.9102 146.578C83.9857 146.779 84.0938 146.932 84.2344 147.039C84.3776 147.143 84.5508 147.195 84.7539 147.195ZM87.4258 149.465C87.3763 149.465 87.3216 149.464 87.2617 149.461C87.2018 149.458 87.1549 149.456 87.1211 149.453V148.594C87.1419 148.594 87.1654 148.594 87.1914 148.594C87.2148 148.596 87.2396 148.598 87.2656 148.598C87.4609 148.598 87.6003 148.56 87.6836 148.484C87.7695 148.411 87.8125 148.286 87.8125 148.109V143.699H88.9531V148.141C88.9531 148.578 88.8229 148.908 88.5625 149.129C88.3047 149.353 87.9258 149.465 87.4258 149.465ZM88.3828 143.039C88.2083 143.039 88.0573 142.978 87.9297 142.855C87.8021 142.73 87.7383 142.581 87.7383 142.406C87.7383 142.229 87.8021 142.079 87.9297 141.957C88.0573 141.832 88.2083 141.77 88.3828 141.77C88.5599 141.77 88.7109 141.832 88.8359 141.957C88.9609 142.079 89.0234 142.229 89.0234 142.406C89.0234 142.581 88.9609 142.73 88.8359 142.855C88.7109 142.978 88.5599 143.039 88.3828 143.039ZM91.9922 148.09C91.5573 148.09 91.1823 148 90.8672 147.82C90.5547 147.638 90.3138 147.38 90.1445 147.047C89.9753 146.714 89.8906 146.316 89.8906 145.855V145.852C89.8906 145.396 89.974 145 90.1406 144.664C90.3099 144.328 90.5482 144.068 90.8555 143.883C91.1654 143.698 91.5286 143.605 91.9453 143.605C92.3646 143.605 92.7266 143.695 93.0312 143.875C93.3359 144.055 93.5703 144.306 93.7344 144.629C93.8984 144.952 93.9805 145.331 93.9805 145.766V146.121H90.4609V145.406H93.4336L92.8984 146.082V145.625C92.8984 145.367 92.8581 145.152 92.7773 144.98C92.6992 144.809 92.5898 144.68 92.4492 144.594C92.3112 144.505 92.1497 144.461 91.9648 144.461C91.7826 144.461 91.6198 144.507 91.4766 144.598C91.3359 144.686 91.224 144.818 91.1406 144.992C91.0599 145.164 91.0195 145.375 91.0195 145.625V146.086C91.0195 146.328 91.0599 146.535 91.1406 146.707C91.2214 146.879 91.3359 147.01 91.4844 147.102C91.6328 147.193 91.8099 147.238 92.0156 147.238C92.1823 147.238 92.3242 147.214 92.4414 147.164C92.5586 147.115 92.6523 147.057 92.7227 146.992C92.7956 146.924 92.8451 146.863 92.8711 146.809L92.8828 146.785H93.9453L93.9375 146.824C93.9036 146.96 93.8424 147.102 93.7539 147.25C93.6654 147.396 93.543 147.533 93.3867 147.66C93.2331 147.788 93.0404 147.892 92.8086 147.973C92.5794 148.051 92.3073 148.09 91.9922 148.09ZM96.8086 148.09C96.3607 148.09 95.9792 148.003 95.6641 147.828C95.3516 147.651 95.1133 147.396 94.9492 147.062C94.7852 146.727 94.7031 146.32 94.7031 145.844V145.836C94.7031 145.362 94.7852 144.96 94.9492 144.629C95.1133 144.298 95.3516 144.046 95.6641 143.871C95.9792 143.694 96.3607 143.605 96.8086 143.605C97.1888 143.605 97.5156 143.671 97.7891 143.801C98.0625 143.931 98.2786 144.115 98.4375 144.352C98.5964 144.589 98.6927 144.867 98.7266 145.188V145.199H97.668L97.6641 145.191C97.625 144.983 97.5339 144.816 97.3906 144.691C97.25 144.564 97.0573 144.5 96.8125 144.5C96.6094 144.5 96.4362 144.552 96.293 144.656C96.1523 144.758 96.0456 144.908 95.9727 145.105C95.8997 145.303 95.8633 145.547 95.8633 145.836V145.844C95.8633 146.133 95.8997 146.379 95.9727 146.582C96.0482 146.783 96.1562 146.935 96.2969 147.039C96.4375 147.143 96.6094 147.195 96.8125 147.195C97.0469 147.195 97.2344 147.141 97.375 147.031C97.5156 146.922 97.6107 146.758 97.6602 146.539L97.668 146.527L98.7227 146.523V146.551C98.681 146.861 98.5807 147.132 98.4219 147.363C98.263 147.595 98.0482 147.775 97.7773 147.902C97.5065 148.027 97.1836 148.09 96.8086 148.09ZM101.441 148.016C100.921 148.016 100.546 147.924 100.316 147.742C100.087 147.557 99.9727 147.257 99.9727 146.84V144.559H99.3086V143.699H99.9727V142.672H101.125V143.699H102.012V144.559H101.125V146.578C101.125 146.771 101.168 146.913 101.254 147.004C101.342 147.092 101.483 147.137 101.676 147.137C101.749 147.137 101.809 147.135 101.855 147.133C101.905 147.128 101.957 147.122 102.012 147.117V147.965C101.941 147.978 101.857 147.99 101.758 148C101.659 148.01 101.553 148.016 101.441 148.016ZM106.504 148V143.336H104.812V142.363H109.375V143.336H107.684V148H106.504ZM110.234 148V143.699H111.375V148H110.234ZM110.809 143.039C110.634 143.039 110.483 142.978 110.355 142.855C110.228 142.73 110.164 142.581 110.164 142.406C110.164 142.229 110.228 142.079 110.355 141.957C110.483 141.832 110.634 141.77 110.809 141.77C110.986 141.77 111.137 141.832 111.262 141.957C111.387 142.079 111.449 142.229 111.449 142.406C111.449 142.581 111.387 142.73 111.262 142.855C111.137 142.978 110.986 143.039 110.809 143.039ZM112.523 148V143.699H113.664V144.371H113.734C113.826 144.129 113.977 143.941 114.188 143.809C114.398 143.673 114.645 143.605 114.926 143.605C115.121 143.605 115.298 143.638 115.457 143.703C115.616 143.766 115.751 143.855 115.863 143.973C115.975 144.09 116.061 144.232 116.121 144.398H116.191C116.257 144.24 116.353 144.102 116.48 143.984C116.608 143.865 116.758 143.772 116.93 143.707C117.102 143.639 117.288 143.605 117.488 143.605C117.775 143.605 118.021 143.664 118.227 143.781C118.435 143.898 118.595 144.065 118.707 144.281C118.822 144.495 118.879 144.75 118.879 145.047V148H117.738V145.332C117.738 145.158 117.712 145.013 117.66 144.898C117.608 144.784 117.529 144.698 117.422 144.641C117.318 144.581 117.186 144.551 117.027 144.551C116.874 144.551 116.74 144.586 116.625 144.656C116.513 144.727 116.426 144.822 116.363 144.941C116.301 145.061 116.27 145.199 116.27 145.355V148H115.129V145.281C115.129 145.128 115.1 144.996 115.043 144.887C114.988 144.777 114.908 144.694 114.801 144.637C114.697 144.579 114.57 144.551 114.422 144.551C114.273 144.551 114.142 144.589 114.027 144.664C113.915 144.737 113.827 144.839 113.762 144.969C113.697 145.096 113.664 145.242 113.664 145.406V148H112.523ZM121.875 148.09C121.44 148.09 121.065 148 120.75 147.82C120.438 147.638 120.197 147.38 120.027 147.047C119.858 146.714 119.773 146.316 119.773 145.855V145.852C119.773 145.396 119.857 145 120.023 144.664C120.193 144.328 120.431 144.068 120.738 143.883C121.048 143.698 121.411 143.605 121.828 143.605C122.247 143.605 122.609 143.695 122.914 143.875C123.219 144.055 123.453 144.306 123.617 144.629C123.781 144.952 123.863 145.331 123.863 145.766V146.121H120.344V145.406H123.316L122.781 146.082V145.625C122.781 145.367 122.741 145.152 122.66 144.98C122.582 144.809 122.473 144.68 122.332 144.594C122.194 144.505 122.033 144.461 121.848 144.461C121.665 144.461 121.503 144.507 121.359 144.598C121.219 144.686 121.107 144.818 121.023 144.992C120.943 145.164 120.902 145.375 120.902 145.625V146.086C120.902 146.328 120.943 146.535 121.023 146.707C121.104 146.879 121.219 147.01 121.367 147.102C121.516 147.193 121.693 147.238 121.898 147.238C122.065 147.238 122.207 147.214 122.324 147.164C122.441 147.115 122.535 147.057 122.605 146.992C122.678 146.924 122.728 146.863 122.754 146.809L122.766 146.785H123.828L123.82 146.824C123.786 146.96 123.725 147.102 123.637 147.25C123.548 147.396 123.426 147.533 123.27 147.66C123.116 147.788 122.923 147.892 122.691 147.973C122.462 148.051 122.19 148.09 121.875 148.09ZM124.836 148V142.055H125.977V148H124.836ZM127.164 148V143.699H128.305V148H127.164ZM127.738 143.039C127.564 143.039 127.413 142.978 127.285 142.855C127.158 142.73 127.094 142.581 127.094 142.406C127.094 142.229 127.158 142.079 127.285 141.957C127.413 141.832 127.564 141.77 127.738 141.77C127.915 141.77 128.066 141.832 128.191 141.957C128.316 142.079 128.379 142.229 128.379 142.406C128.379 142.581 128.316 142.73 128.191 142.855C128.066 142.978 127.915 143.039 127.738 143.039ZM129.453 148V143.699H130.594V144.363H130.664C130.763 144.129 130.917 143.944 131.125 143.809C131.333 143.673 131.591 143.605 131.898 143.605C132.378 143.605 132.742 143.746 132.992 144.027C133.245 144.306 133.371 144.703 133.371 145.219V148H132.23V145.477C132.23 145.172 132.167 144.941 132.039 144.785C131.911 144.629 131.712 144.551 131.441 144.551C131.267 144.551 131.116 144.591 130.988 144.672C130.863 144.75 130.766 144.861 130.695 145.004C130.628 145.147 130.594 145.316 130.594 145.512V148H129.453ZM136.367 148.09C135.932 148.09 135.557 148 135.242 147.82C134.93 147.638 134.689 147.38 134.52 147.047C134.35 146.714 134.266 146.316 134.266 145.855V145.852C134.266 145.396 134.349 145 134.516 144.664C134.685 144.328 134.923 144.068 135.23 143.883C135.54 143.698 135.904 143.605 136.32 143.605C136.74 143.605 137.102 143.695 137.406 143.875C137.711 144.055 137.945 144.306 138.109 144.629C138.273 144.952 138.355 145.331 138.355 145.766V146.121H134.836V145.406H137.809L137.273 146.082V145.625C137.273 145.367 137.233 145.152 137.152 144.98C137.074 144.809 136.965 144.68 136.824 144.594C136.686 144.505 136.525 144.461 136.34 144.461C136.158 144.461 135.995 144.507 135.852 144.598C135.711 144.686 135.599 144.818 135.516 144.992C135.435 145.164 135.395 145.375 135.395 145.625V146.086C135.395 146.328 135.435 146.535 135.516 146.707C135.596 146.879 135.711 147.01 135.859 147.102C136.008 147.193 136.185 147.238 136.391 147.238C136.557 147.238 136.699 147.214 136.816 147.164C136.934 147.115 137.027 147.057 137.098 146.992C137.171 146.924 137.22 146.863 137.246 146.809L137.258 146.785H138.32L138.312 146.824C138.279 146.96 138.217 147.102 138.129 147.25C138.04 147.396 137.918 147.533 137.762 147.66C137.608 147.788 137.415 147.892 137.184 147.973C136.954 148.051 136.682 148.09 136.367 148.09ZM145.359 148L142.582 144.965C142.384 144.746 142.228 144.559 142.113 144.402C141.999 144.246 141.918 144.104 141.871 143.977C141.824 143.849 141.801 143.72 141.801 143.59V143.582C141.801 143.324 141.87 143.096 142.008 142.898C142.148 142.701 142.339 142.547 142.578 142.438C142.82 142.326 143.095 142.27 143.402 142.27C143.71 142.27 143.982 142.326 144.219 142.438C144.456 142.547 144.642 142.698 144.777 142.891C144.913 143.083 144.98 143.306 144.98 143.559V143.566C144.98 143.759 144.938 143.941 144.852 144.113C144.768 144.285 144.634 144.452 144.449 144.613C144.267 144.772 144.027 144.932 143.73 145.094L143.203 144.555C143.409 144.448 143.572 144.346 143.691 144.25C143.814 144.154 143.901 144.056 143.953 143.957C144.005 143.855 144.031 143.747 144.031 143.633V143.625C144.031 143.51 144.005 143.409 143.953 143.32C143.901 143.232 143.828 143.161 143.734 143.109C143.643 143.057 143.535 143.031 143.41 143.031C143.29 143.031 143.182 143.057 143.086 143.109C142.992 143.159 142.918 143.228 142.863 143.316C142.809 143.402 142.781 143.503 142.781 143.617V143.625C142.781 143.711 142.798 143.794 142.832 143.875C142.866 143.956 142.926 144.049 143.012 144.156C143.098 144.263 143.217 144.398 143.371 144.562L146.637 147.996V148H145.359ZM143.172 148.105C142.773 148.105 142.426 148.04 142.129 147.91C141.832 147.78 141.603 147.596 141.441 147.359C141.28 147.122 141.199 146.845 141.199 146.527V146.52C141.199 146.194 141.284 145.91 141.453 145.668C141.625 145.423 141.893 145.204 142.258 145.012L142.605 144.824L143.145 145.418L142.879 145.559C142.676 145.663 142.522 145.788 142.418 145.934C142.316 146.079 142.266 146.243 142.266 146.426V146.434C142.266 146.6 142.309 146.747 142.395 146.875C142.48 147.003 142.6 147.102 142.754 147.172C142.908 147.242 143.086 147.277 143.289 147.277C143.495 147.277 143.682 147.249 143.852 147.191C144.021 147.134 144.172 147.055 144.305 146.953C144.44 146.852 144.559 146.733 144.66 146.598C144.811 146.392 144.924 146.159 145 145.898C145.076 145.635 145.113 145.35 145.113 145.043V144.863H146.07V145.117C146.07 145.557 146.004 145.961 145.871 146.328C145.738 146.693 145.536 147.013 145.266 147.289C145.021 147.542 144.723 147.741 144.371 147.887C144.02 148.033 143.62 148.105 143.172 148.105ZM151.883 148.145C151.339 148.145 150.868 148.025 150.473 147.785C150.077 147.546 149.772 147.204 149.559 146.762C149.345 146.319 149.238 145.793 149.238 145.184V145.176C149.238 144.566 149.345 144.04 149.559 143.598C149.772 143.155 150.076 142.815 150.469 142.578C150.865 142.339 151.336 142.219 151.883 142.219C152.328 142.219 152.728 142.306 153.082 142.48C153.439 142.655 153.727 142.896 153.945 143.203C154.164 143.51 154.292 143.862 154.328 144.258V144.309H153.184L153.18 144.281C153.141 144.07 153.061 143.885 152.941 143.727C152.822 143.565 152.671 143.44 152.488 143.352C152.309 143.263 152.107 143.219 151.883 143.219C151.589 143.219 151.333 143.298 151.117 143.457C150.901 143.613 150.734 143.839 150.617 144.133C150.503 144.424 150.445 144.772 150.445 145.176V145.184C150.445 145.585 150.503 145.932 150.617 146.227C150.734 146.521 150.901 146.747 151.117 146.906C151.333 147.065 151.59 147.145 151.887 147.145C152.113 147.145 152.315 147.104 152.492 147.023C152.672 146.94 152.82 146.824 152.938 146.676C153.057 146.525 153.137 146.349 153.176 146.148L153.184 146.113H154.332V146.16C154.29 146.553 154.161 146.898 153.945 147.195C153.729 147.492 153.445 147.725 153.094 147.895C152.742 148.061 152.339 148.145 151.883 148.145ZM157.215 148.09C156.775 148.09 156.396 148.001 156.078 147.824C155.76 147.645 155.517 147.388 155.348 147.055C155.178 146.719 155.094 146.318 155.094 145.852V145.844C155.094 145.38 155.18 144.982 155.352 144.648C155.523 144.315 155.767 144.059 156.082 143.879C156.4 143.697 156.777 143.605 157.215 143.605C157.652 143.605 158.029 143.695 158.344 143.875C158.661 144.055 158.906 144.312 159.078 144.648C159.25 144.982 159.336 145.38 159.336 145.844V145.852C159.336 146.318 159.251 146.719 159.082 147.055C158.913 147.388 158.669 147.645 158.352 147.824C158.036 148.001 157.658 148.09 157.215 148.09ZM157.215 147.195C157.418 147.195 157.59 147.142 157.73 147.035C157.871 146.928 157.979 146.775 158.055 146.574C158.13 146.374 158.168 146.133 158.168 145.852V145.844C158.168 145.562 158.13 145.323 158.055 145.125C157.979 144.924 157.87 144.771 157.727 144.664C157.586 144.555 157.415 144.5 157.215 144.5C157.014 144.5 156.842 144.555 156.699 144.664C156.559 144.771 156.451 144.924 156.375 145.125C156.299 145.323 156.262 145.562 156.262 145.844V145.852C156.262 146.135 156.298 146.378 156.371 146.578C156.447 146.779 156.555 146.932 156.695 147.039C156.839 147.143 157.012 147.195 157.215 147.195ZM161.977 148.09C161.586 148.09 161.253 148.036 160.977 147.93C160.703 147.82 160.488 147.671 160.332 147.48C160.178 147.29 160.089 147.073 160.062 146.828L160.059 146.812H161.18L161.188 146.828C161.234 146.961 161.323 147.07 161.453 147.156C161.586 147.242 161.764 147.285 161.988 147.285C162.134 147.285 162.262 147.266 162.371 147.227C162.48 147.185 162.566 147.129 162.629 147.059C162.691 146.988 162.723 146.906 162.723 146.812V146.805C162.723 146.69 162.676 146.595 162.582 146.52C162.488 146.444 162.332 146.382 162.113 146.332L161.395 146.18C161.121 146.122 160.893 146.039 160.711 145.93C160.529 145.818 160.392 145.681 160.301 145.52C160.212 145.358 160.168 145.171 160.168 144.957V144.953C160.168 144.682 160.242 144.447 160.391 144.246C160.542 144.043 160.751 143.885 161.02 143.773C161.29 143.661 161.604 143.605 161.961 143.605C162.336 143.605 162.655 143.663 162.918 143.777C163.181 143.889 163.383 144.04 163.523 144.23C163.667 144.418 163.746 144.628 163.762 144.859V144.875H162.703L162.699 144.855C162.668 144.738 162.59 144.635 162.465 144.547C162.34 144.456 162.171 144.41 161.957 144.41C161.827 144.41 161.711 144.43 161.609 144.469C161.508 144.508 161.427 144.562 161.367 144.633C161.31 144.703 161.281 144.786 161.281 144.883V144.887C161.281 144.962 161.301 145.029 161.34 145.086C161.379 145.143 161.443 145.193 161.531 145.234C161.62 145.276 161.738 145.314 161.887 145.348L162.602 145.5C163.031 145.594 163.349 145.734 163.555 145.922C163.76 146.109 163.863 146.362 163.863 146.68V146.684C163.863 146.967 163.783 147.215 163.621 147.426C163.46 147.637 163.237 147.801 162.953 147.918C162.669 148.033 162.344 148.09 161.977 148.09ZM166.559 148.016C166.038 148.016 165.663 147.924 165.434 147.742C165.204 147.557 165.09 147.257 165.09 146.84V144.559H164.426V143.699H165.09V142.672H166.242V143.699H167.129V144.559H166.242V146.578C166.242 146.771 166.285 146.913 166.371 147.004C166.46 147.092 166.6 147.137 166.793 147.137C166.866 147.137 166.926 147.135 166.973 147.133C167.022 147.128 167.074 147.122 167.129 147.117V147.965C167.059 147.978 166.974 147.99 166.875 148C166.776 148.01 166.671 148.016 166.559 148.016Z" fill="#4968A9"/>
<path d="M50.0195 164.137C49.4987 164.137 49.0469 164.017 48.6641 163.777C48.2839 163.538 47.9909 163.198 47.7852 162.758C47.5794 162.318 47.4766 161.794 47.4766 161.188V161.18C47.4766 160.57 47.5794 160.046 47.7852 159.605C47.9909 159.165 48.2839 158.826 48.6641 158.586C49.0443 158.346 49.4961 158.227 50.0195 158.227C50.4336 158.227 50.8073 158.309 51.1406 158.473C51.4766 158.634 51.7513 158.858 51.9648 159.145C52.181 159.431 52.3125 159.76 52.3594 160.133V160.156H51.4883L51.4844 160.141C51.4323 159.909 51.3372 159.708 51.1992 159.539C51.0612 159.37 50.8919 159.238 50.6914 159.145C50.4909 159.051 50.2669 159.004 50.0195 159.004C49.6836 159.004 49.3919 159.092 49.1445 159.27C48.8997 159.447 48.7096 159.698 48.5742 160.023C48.4414 160.346 48.375 160.732 48.375 161.18V161.188C48.375 161.63 48.4414 162.014 48.5742 162.34C48.7096 162.665 48.8997 162.917 49.1445 163.094C49.3919 163.271 49.6849 163.359 50.0234 163.359C50.2708 163.359 50.4948 163.318 50.6953 163.234C50.8984 163.151 51.0677 163.033 51.2031 162.879C51.3385 162.723 51.431 162.539 51.4805 162.328L51.4883 162.312H52.3633L52.3594 162.332C52.3047 162.694 52.1719 163.01 51.9609 163.281C51.75 163.552 51.4792 163.763 51.1484 163.914C50.8177 164.062 50.4414 164.137 50.0195 164.137ZM53.4531 164V158.094H54.3008V164H53.4531ZM55.5742 164V159.758H56.4258V164H55.5742ZM56.0039 159C55.8581 159 55.7331 158.948 55.6289 158.844C55.5247 158.74 55.4727 158.615 55.4727 158.469C55.4727 158.323 55.5247 158.199 55.6289 158.098C55.7331 157.993 55.8581 157.941 56.0039 157.941C56.1497 157.941 56.2747 157.993 56.3789 158.098C56.4831 158.199 56.5352 158.323 56.5352 158.469C56.5352 158.615 56.4831 158.74 56.3789 158.844C56.2747 158.948 56.1497 159 56.0039 159ZM59.4375 164.082C59.0234 164.082 58.668 163.993 58.3711 163.816C58.0742 163.637 57.8451 163.383 57.6836 163.055C57.5247 162.727 57.4453 162.339 57.4453 161.891V161.887C57.4453 161.444 57.5247 161.057 57.6836 160.727C57.8451 160.396 58.0716 160.138 58.3633 159.953C58.6576 159.768 59.0013 159.676 59.3945 159.676C59.7904 159.676 60.1302 159.764 60.4141 159.941C60.7005 160.118 60.9206 160.367 61.0742 160.688C61.2279 161.005 61.3047 161.378 61.3047 161.805V162.102H57.875V161.496H60.8828L60.4766 162.059V161.719C60.4766 161.417 60.4297 161.167 60.3359 160.969C60.2448 160.768 60.1185 160.618 59.957 160.52C59.7956 160.421 59.6094 160.371 59.3984 160.371C59.1875 160.371 58.9987 160.423 58.832 160.527C58.668 160.629 58.5378 160.78 58.4414 160.98C58.3477 161.181 58.3008 161.427 58.3008 161.719V162.059C58.3008 162.337 58.3477 162.576 58.4414 162.773C58.5352 162.971 58.668 163.122 58.8398 163.227C59.0143 163.331 59.2201 163.383 59.457 163.383C59.6393 163.383 59.7956 163.358 59.9258 163.309C60.0586 163.257 60.1667 163.193 60.25 163.117C60.3359 163.042 60.3945 162.967 60.4258 162.895L60.4414 162.863H61.2617L61.2539 162.898C61.2174 163.039 61.1536 163.18 61.0625 163.32C60.9714 163.458 60.8503 163.585 60.6992 163.699C60.5508 163.814 60.3711 163.906 60.1602 163.977C59.9518 164.047 59.7109 164.082 59.4375 164.082ZM62.3125 164V159.758H63.1602V160.398H63.2266C63.3307 160.172 63.4844 159.995 63.6875 159.867C63.8906 159.74 64.1471 159.676 64.457 159.676C64.9336 159.676 65.2982 159.812 65.5508 160.086C65.8034 160.359 65.9297 160.749 65.9297 161.254V164H65.0781V161.453C65.0781 161.099 65.0039 160.836 64.8555 160.664C64.7096 160.49 64.4805 160.402 64.168 160.402C63.9622 160.402 63.7839 160.448 63.6328 160.539C63.4818 160.628 63.3646 160.755 63.2812 160.922C63.2005 161.086 63.1602 161.283 63.1602 161.512V164H62.3125ZM68.7109 164.027C68.2474 164.027 67.9115 163.939 67.7031 163.762C67.4974 163.582 67.3945 163.289 67.3945 162.883V160.426H66.7305V159.758H67.3945V158.688H68.2617V159.758H69.1719V160.426H68.2617V162.676C68.2617 162.905 68.3073 163.07 68.3984 163.172C68.4896 163.271 68.6406 163.32 68.8516 163.32C68.9141 163.32 68.9674 163.319 69.0117 163.316C69.0586 163.314 69.112 163.31 69.1719 163.305V163.984C69.1042 163.995 69.0312 164.004 68.9531 164.012C68.875 164.022 68.7943 164.027 68.7109 164.027ZM72.3555 164V159.758H73.207V164H72.3555ZM72.7852 159C72.6393 159 72.5143 158.948 72.4102 158.844C72.306 158.74 72.2539 158.615 72.2539 158.469C72.2539 158.323 72.306 158.199 72.4102 158.098C72.5143 157.993 72.6393 157.941 72.7852 157.941C72.931 157.941 73.056 157.993 73.1602 158.098C73.2643 158.199 73.3164 158.323 73.3164 158.469C73.3164 158.615 73.2643 158.74 73.1602 158.844C73.056 158.948 72.931 159 72.7852 159ZM75.9805 164.082C75.6393 164.082 75.3424 164.033 75.0898 163.934C74.8372 163.832 74.6367 163.693 74.4883 163.516C74.3398 163.336 74.2526 163.128 74.2266 162.891V162.883H75.0781V162.891C75.1328 163.049 75.237 163.178 75.3906 163.277C75.5443 163.376 75.7474 163.426 76 163.426C76.1745 163.426 76.3268 163.401 76.457 163.352C76.5898 163.302 76.694 163.233 76.7695 163.145C76.8451 163.056 76.8828 162.954 76.8828 162.84V162.832C76.8828 162.699 76.8294 162.587 76.7227 162.496C76.6159 162.405 76.4401 162.331 76.1953 162.273L75.5156 162.117C75.25 162.057 75.0299 161.975 74.8555 161.871C74.681 161.767 74.5521 161.639 74.4688 161.488C74.3854 161.335 74.3438 161.155 74.3438 160.949V160.945C74.3438 160.698 74.4141 160.479 74.5547 160.289C74.6953 160.096 74.8893 159.947 75.1367 159.84C75.3867 159.73 75.6719 159.676 75.9922 159.676C76.3151 159.676 76.5964 159.727 76.8359 159.828C77.0781 159.927 77.2695 160.065 77.4102 160.242C77.5508 160.417 77.6341 160.62 77.6602 160.852V160.855H76.8477V160.848C76.8086 160.699 76.7148 160.576 76.5664 160.477C76.4206 160.378 76.2279 160.328 75.9883 160.328C75.8346 160.328 75.6979 160.353 75.5781 160.402C75.4583 160.449 75.3633 160.516 75.293 160.602C75.2253 160.685 75.1914 160.784 75.1914 160.898V160.906C75.1914 160.995 75.2135 161.073 75.2578 161.141C75.3047 161.206 75.3776 161.264 75.4766 161.316C75.5755 161.366 75.7031 161.41 75.8594 161.449L76.5352 161.602C76.9414 161.698 77.2435 161.837 77.4414 162.02C77.6419 162.202 77.7422 162.447 77.7422 162.754V162.762C77.7422 163.022 77.6654 163.253 77.5117 163.453C77.3581 163.651 77.1484 163.806 76.8828 163.918C76.6198 164.027 76.319 164.082 75.9805 164.082ZM80.9297 164V159.758H81.7773V160.398H81.8438C81.9193 160.172 82.0521 159.996 82.2422 159.871C82.4349 159.746 82.6719 159.684 82.9531 159.684C83.0234 159.684 83.0924 159.688 83.1602 159.695C83.2279 159.703 83.2826 159.712 83.3242 159.723V160.504C83.2487 160.488 83.1732 160.477 83.0977 160.469C83.0247 160.461 82.9479 160.457 82.8672 160.457C82.651 160.457 82.4609 160.499 82.2969 160.582C82.1354 160.665 82.0078 160.783 81.9141 160.934C81.8229 161.082 81.7773 161.259 81.7773 161.465V164H80.9297ZM85.8125 164.082C85.3984 164.082 85.043 163.993 84.7461 163.816C84.4492 163.637 84.2201 163.383 84.0586 163.055C83.8997 162.727 83.8203 162.339 83.8203 161.891V161.887C83.8203 161.444 83.8997 161.057 84.0586 160.727C84.2201 160.396 84.4466 160.138 84.7383 159.953C85.0326 159.768 85.3763 159.676 85.7695 159.676C86.1654 159.676 86.5052 159.764 86.7891 159.941C87.0755 160.118 87.2956 160.367 87.4492 160.688C87.6029 161.005 87.6797 161.378 87.6797 161.805V162.102H84.25V161.496H87.2578L86.8516 162.059V161.719C86.8516 161.417 86.8047 161.167 86.7109 160.969C86.6198 160.768 86.4935 160.618 86.332 160.52C86.1706 160.421 85.9844 160.371 85.7734 160.371C85.5625 160.371 85.3737 160.423 85.207 160.527C85.043 160.629 84.9128 160.78 84.8164 160.98C84.7227 161.181 84.6758 161.427 84.6758 161.719V162.059C84.6758 162.337 84.7227 162.576 84.8164 162.773C84.9102 162.971 85.043 163.122 85.2148 163.227C85.3893 163.331 85.5951 163.383 85.832 163.383C86.0143 163.383 86.1706 163.358 86.3008 163.309C86.4336 163.257 86.5417 163.193 86.625 163.117C86.7109 163.042 86.7695 162.967 86.8008 162.895L86.8164 162.863H87.6367L87.6289 162.898C87.5924 163.039 87.5286 163.18 87.4375 163.32C87.3464 163.458 87.2253 163.585 87.0742 163.699C86.9258 163.814 86.7461 163.906 86.5352 163.977C86.3268 164.047 86.0859 164.082 85.8125 164.082ZM91.6133 165.414V163.359H91.5469C91.474 163.508 91.3724 163.635 91.2422 163.742C91.1146 163.849 90.9661 163.931 90.7969 163.988C90.6276 164.043 90.4414 164.07 90.2383 164.07C89.8815 164.07 89.5703 163.982 89.3047 163.805C89.0417 163.625 88.8385 163.371 88.6953 163.043C88.5521 162.715 88.4805 162.328 88.4805 161.883V161.875C88.4805 161.427 88.5521 161.039 88.6953 160.711C88.8385 160.383 89.0417 160.13 89.3047 159.953C89.5703 159.773 89.8841 159.684 90.2461 159.684C90.4362 159.684 90.6146 159.715 90.7812 159.777C90.9505 159.84 91.1016 159.93 91.2344 160.047C91.3698 160.161 91.4792 160.299 91.5625 160.461H91.6133V159.758H92.4609V165.414H91.6133ZM90.4844 163.344C90.7188 163.344 90.9206 163.285 91.0898 163.168C91.2617 163.048 91.3945 162.879 91.4883 162.66C91.582 162.441 91.6289 162.182 91.6289 161.883V161.875C91.6289 161.573 91.582 161.312 91.4883 161.094C91.3945 160.875 91.2617 160.707 91.0898 160.59C90.9206 160.47 90.7174 160.41 90.4805 160.41C90.2461 160.41 90.043 160.47 89.8711 160.59C89.7018 160.707 89.5716 160.875 89.4805 161.094C89.3893 161.31 89.3438 161.57 89.3438 161.875V161.883C89.3438 162.185 89.3893 162.445 89.4805 162.664C89.5742 162.883 89.7057 163.051 89.875 163.168C90.0443 163.285 90.2474 163.344 90.4844 163.344ZM95.0938 164.082C94.776 164.082 94.5078 164.021 94.2891 163.898C94.0729 163.773 93.9102 163.594 93.8008 163.359C93.694 163.122 93.6406 162.837 93.6406 162.504V159.758H94.4883V162.305C94.4883 162.654 94.5573 162.915 94.6953 163.09C94.8333 163.264 95.0586 163.352 95.3711 163.352C95.5378 163.352 95.6862 163.327 95.8164 163.277C95.9466 163.225 96.056 163.151 96.1445 163.055C96.2331 162.958 96.2982 162.842 96.3398 162.707C96.3841 162.572 96.4062 162.418 96.4062 162.246V159.758H97.2578V164H96.4062V163.359H96.3438C96.276 163.51 96.1836 163.641 96.0664 163.75C95.9492 163.857 95.8086 163.939 95.6445 163.996C95.4831 164.053 95.2995 164.082 95.0938 164.082ZM100.258 164.082C99.8438 164.082 99.4883 163.993 99.1914 163.816C98.8945 163.637 98.6654 163.383 98.5039 163.055C98.3451 162.727 98.2656 162.339 98.2656 161.891V161.887C98.2656 161.444 98.3451 161.057 98.5039 160.727C98.6654 160.396 98.8919 160.138 99.1836 159.953C99.4779 159.768 99.8216 159.676 100.215 159.676C100.611 159.676 100.951 159.764 101.234 159.941C101.521 160.118 101.741 160.367 101.895 160.688C102.048 161.005 102.125 161.378 102.125 161.805V162.102H98.6953V161.496H101.703L101.297 162.059V161.719C101.297 161.417 101.25 161.167 101.156 160.969C101.065 160.768 100.939 160.618 100.777 160.52C100.616 160.421 100.43 160.371 100.219 160.371C100.008 160.371 99.819 160.423 99.6523 160.527C99.4883 160.629 99.3581 160.78 99.2617 160.98C99.168 161.181 99.1211 161.427 99.1211 161.719V162.059C99.1211 162.337 99.168 162.576 99.2617 162.773C99.3555 162.971 99.4883 163.122 99.6602 163.227C99.8346 163.331 100.04 163.383 100.277 163.383C100.46 163.383 100.616 163.358 100.746 163.309C100.879 163.257 100.987 163.193 101.07 163.117C101.156 163.042 101.215 162.967 101.246 162.895L101.262 162.863H102.082L102.074 162.898C102.038 163.039 101.974 163.18 101.883 163.32C101.792 163.458 101.671 163.585 101.52 163.699C101.371 163.814 101.191 163.906 100.98 163.977C100.772 164.047 100.531 164.082 100.258 164.082ZM104.676 164.082C104.335 164.082 104.038 164.033 103.785 163.934C103.533 163.832 103.332 163.693 103.184 163.516C103.035 163.336 102.948 163.128 102.922 162.891V162.883H103.773V162.891C103.828 163.049 103.932 163.178 104.086 163.277C104.24 163.376 104.443 163.426 104.695 163.426C104.87 163.426 105.022 163.401 105.152 163.352C105.285 163.302 105.389 163.233 105.465 163.145C105.54 163.056 105.578 162.954 105.578 162.84V162.832C105.578 162.699 105.525 162.587 105.418 162.496C105.311 162.405 105.135 162.331 104.891 162.273L104.211 162.117C103.945 162.057 103.725 161.975 103.551 161.871C103.376 161.767 103.247 161.639 103.164 161.488C103.081 161.335 103.039 161.155 103.039 160.949V160.945C103.039 160.698 103.109 160.479 103.25 160.289C103.391 160.096 103.585 159.947 103.832 159.84C104.082 159.73 104.367 159.676 104.688 159.676C105.01 159.676 105.292 159.727 105.531 159.828C105.773 159.927 105.965 160.065 106.105 160.242C106.246 160.417 106.329 160.62 106.355 160.852V160.855H105.543V160.848C105.504 160.699 105.41 160.576 105.262 160.477C105.116 160.378 104.923 160.328 104.684 160.328C104.53 160.328 104.393 160.353 104.273 160.402C104.154 160.449 104.059 160.516 103.988 160.602C103.921 160.685 103.887 160.784 103.887 160.898V160.906C103.887 160.995 103.909 161.073 103.953 161.141C104 161.206 104.073 161.264 104.172 161.316C104.271 161.366 104.398 161.41 104.555 161.449L105.23 161.602C105.637 161.698 105.939 161.837 106.137 162.02C106.337 162.202 106.438 162.447 106.438 162.754V162.762C106.438 163.022 106.361 163.253 106.207 163.453C106.053 163.651 105.844 163.806 105.578 163.918C105.315 164.027 105.014 164.082 104.676 164.082ZM109.016 164.027C108.552 164.027 108.216 163.939 108.008 163.762C107.802 163.582 107.699 163.289 107.699 162.883V160.426H107.035V159.758H107.699V158.688H108.566V159.758H109.477V160.426H108.566V162.676C108.566 162.905 108.612 163.07 108.703 163.172C108.794 163.271 108.945 163.32 109.156 163.32C109.219 163.32 109.272 163.319 109.316 163.316C109.363 163.314 109.417 163.31 109.477 163.305V163.984C109.409 163.995 109.336 164.004 109.258 164.012C109.18 164.022 109.099 164.027 109.016 164.027ZM110.48 164V159.758H111.332V164H110.48ZM110.91 159C110.764 159 110.639 158.948 110.535 158.844C110.431 158.74 110.379 158.615 110.379 158.469C110.379 158.323 110.431 158.199 110.535 158.098C110.639 157.993 110.764 157.941 110.91 157.941C111.056 157.941 111.181 157.993 111.285 158.098C111.389 158.199 111.441 158.323 111.441 158.469C111.441 158.615 111.389 158.74 111.285 158.844C111.181 158.948 111.056 159 110.91 159ZM112.562 164V159.758H113.41V160.398H113.477C113.581 160.172 113.734 159.995 113.938 159.867C114.141 159.74 114.397 159.676 114.707 159.676C115.184 159.676 115.548 159.812 115.801 160.086C116.053 160.359 116.18 160.749 116.18 161.254V164H115.328V161.453C115.328 161.099 115.254 160.836 115.105 160.664C114.96 160.49 114.73 160.402 114.418 160.402C114.212 160.402 114.034 160.448 113.883 160.539C113.732 160.628 113.615 160.755 113.531 160.922C113.451 161.086 113.41 161.283 113.41 161.512V164H112.562ZM119.152 165.496C118.793 165.496 118.48 165.447 118.215 165.348C117.952 165.249 117.743 165.111 117.59 164.934C117.436 164.757 117.342 164.551 117.309 164.316L117.312 164.309H118.172L118.176 164.316C118.212 164.462 118.315 164.582 118.484 164.676C118.654 164.77 118.88 164.816 119.164 164.816C119.513 164.816 119.785 164.737 119.98 164.578C120.178 164.419 120.277 164.197 120.277 163.91V163.078H120.211C120.128 163.229 120.021 163.359 119.891 163.469C119.76 163.576 119.612 163.656 119.445 163.711C119.279 163.766 119.098 163.793 118.902 163.793C118.543 163.793 118.23 163.707 117.965 163.535C117.702 163.361 117.499 163.121 117.355 162.816C117.215 162.509 117.145 162.156 117.145 161.758V161.75C117.145 161.346 117.216 160.99 117.359 160.68C117.503 160.367 117.707 160.124 117.973 159.949C118.238 159.772 118.555 159.684 118.922 159.684C119.12 159.684 119.301 159.715 119.465 159.777C119.632 159.84 119.779 159.928 119.906 160.043C120.034 160.158 120.139 160.294 120.223 160.453H120.273V159.758H121.121V163.914C121.121 164.234 121.04 164.513 120.879 164.75C120.72 164.987 120.493 165.171 120.199 165.301C119.905 165.431 119.556 165.496 119.152 165.496ZM119.141 163.09C119.38 163.09 119.586 163.034 119.758 162.922C119.93 162.807 120.061 162.65 120.152 162.449C120.246 162.249 120.293 162.017 120.293 161.754V161.746C120.293 161.486 120.246 161.254 120.152 161.051C120.061 160.848 119.93 160.689 119.758 160.574C119.586 160.46 119.38 160.402 119.141 160.402C118.901 160.402 118.697 160.46 118.527 160.574C118.361 160.689 118.233 160.848 118.145 161.051C118.056 161.251 118.012 161.483 118.012 161.746V161.754C118.012 162.017 118.056 162.249 118.145 162.449C118.233 162.65 118.361 162.807 118.527 162.922C118.697 163.034 118.901 163.09 119.141 163.09ZM126.125 164.027C125.661 164.027 125.326 163.939 125.117 163.762C124.911 163.582 124.809 163.289 124.809 162.883V160.426H124.145V159.758H124.809V158.688H125.676V159.758H126.586V160.426H125.676V162.676C125.676 162.905 125.721 163.07 125.812 163.172C125.904 163.271 126.055 163.32 126.266 163.32C126.328 163.32 126.382 163.319 126.426 163.316C126.473 163.314 126.526 163.31 126.586 163.305V163.984C126.518 163.995 126.445 164.004 126.367 164.012C126.289 164.022 126.208 164.027 126.125 164.027ZM129.328 164.082C128.914 164.082 128.556 163.993 128.254 163.816C127.954 163.639 127.724 163.387 127.562 163.059C127.401 162.728 127.32 162.336 127.32 161.883V161.875C127.32 161.419 127.401 161.027 127.562 160.699C127.727 160.371 127.958 160.118 128.258 159.941C128.56 159.764 128.917 159.676 129.328 159.676C129.742 159.676 130.099 159.764 130.398 159.941C130.698 160.116 130.928 160.368 131.09 160.699C131.254 161.027 131.336 161.419 131.336 161.875V161.883C131.336 162.336 131.254 162.728 131.09 163.059C130.928 163.387 130.698 163.639 130.398 163.816C130.102 163.993 129.745 164.082 129.328 164.082ZM129.328 163.371C129.57 163.371 129.776 163.312 129.945 163.195C130.115 163.076 130.243 162.905 130.332 162.684C130.421 162.462 130.465 162.195 130.465 161.883V161.875C130.465 161.56 130.421 161.292 130.332 161.07C130.243 160.849 130.115 160.68 129.945 160.562C129.776 160.443 129.57 160.383 129.328 160.383C129.086 160.383 128.88 160.443 128.711 160.562C128.542 160.68 128.411 160.849 128.32 161.07C128.232 161.292 128.188 161.56 128.188 161.875V161.883C128.188 162.195 128.232 162.462 128.32 162.684C128.411 162.905 128.542 163.076 128.711 163.195C128.88 163.312 129.086 163.371 129.328 163.371ZM136.066 164.082C135.725 164.082 135.428 164.033 135.176 163.934C134.923 163.832 134.723 163.693 134.574 163.516C134.426 163.336 134.339 163.128 134.312 162.891V162.883H135.164V162.891C135.219 163.049 135.323 163.178 135.477 163.277C135.63 163.376 135.833 163.426 136.086 163.426C136.26 163.426 136.413 163.401 136.543 163.352C136.676 163.302 136.78 163.233 136.855 163.145C136.931 163.056 136.969 162.954 136.969 162.84V162.832C136.969 162.699 136.915 162.587 136.809 162.496C136.702 162.405 136.526 162.331 136.281 162.273L135.602 162.117C135.336 162.057 135.116 161.975 134.941 161.871C134.767 161.767 134.638 161.639 134.555 161.488C134.471 161.335 134.43 161.155 134.43 160.949V160.945C134.43 160.698 134.5 160.479 134.641 160.289C134.781 160.096 134.975 159.947 135.223 159.84C135.473 159.73 135.758 159.676 136.078 159.676C136.401 159.676 136.682 159.727 136.922 159.828C137.164 159.927 137.355 160.065 137.496 160.242C137.637 160.417 137.72 160.62 137.746 160.852V160.855H136.934V160.848C136.895 160.699 136.801 160.576 136.652 160.477C136.507 160.378 136.314 160.328 136.074 160.328C135.921 160.328 135.784 160.353 135.664 160.402C135.544 160.449 135.449 160.516 135.379 160.602C135.311 160.685 135.277 160.784 135.277 160.898V160.906C135.277 160.995 135.299 161.073 135.344 161.141C135.391 161.206 135.464 161.264 135.562 161.316C135.661 161.366 135.789 161.41 135.945 161.449L136.621 161.602C137.027 161.698 137.329 161.837 137.527 162.02C137.728 162.202 137.828 162.447 137.828 162.754V162.762C137.828 163.022 137.751 163.253 137.598 163.453C137.444 163.651 137.234 163.806 136.969 163.918C136.706 164.027 136.405 164.082 136.066 164.082ZM138.875 164V158.094H139.723V160.398H139.789C139.893 160.172 140.047 159.995 140.25 159.867C140.453 159.74 140.71 159.676 141.02 159.676C141.335 159.676 141.602 159.737 141.82 159.859C142.039 159.982 142.206 160.161 142.32 160.398C142.435 160.633 142.492 160.918 142.492 161.254V164H141.641V161.453C141.641 161.099 141.566 160.836 141.418 160.664C141.272 160.49 141.043 160.402 140.73 160.402C140.525 160.402 140.346 160.448 140.195 160.539C140.044 160.628 139.927 160.755 139.844 160.922C139.763 161.086 139.723 161.283 139.723 161.512V164H138.875ZM144.836 164.07C144.568 164.07 144.327 164.02 144.113 163.918C143.902 163.814 143.736 163.667 143.613 163.477C143.491 163.286 143.43 163.064 143.43 162.809V162.801C143.43 162.546 143.491 162.328 143.613 162.148C143.738 161.969 143.918 161.828 144.152 161.727C144.389 161.622 144.676 161.56 145.012 161.539L146.578 161.445V162.043L145.129 162.137C144.837 162.155 144.622 162.217 144.484 162.324C144.346 162.428 144.277 162.576 144.277 162.766V162.773C144.277 162.966 144.352 163.118 144.5 163.23C144.648 163.34 144.836 163.395 145.062 163.395C145.273 163.395 145.461 163.353 145.625 163.27C145.792 163.184 145.922 163.069 146.016 162.926C146.109 162.78 146.156 162.616 146.156 162.434V161.098C146.156 160.863 146.083 160.685 145.938 160.562C145.794 160.438 145.581 160.375 145.297 160.375C145.06 160.375 144.866 160.417 144.715 160.5C144.566 160.583 144.467 160.701 144.418 160.852L144.41 160.863H143.594L143.598 160.836C143.632 160.602 143.724 160.398 143.875 160.227C144.029 160.052 144.229 159.917 144.477 159.82C144.727 159.724 145.012 159.676 145.332 159.676C145.689 159.676 145.991 159.733 146.238 159.848C146.488 159.96 146.677 160.122 146.805 160.336C146.935 160.547 147 160.801 147 161.098V164H146.156V163.398H146.094C146.01 163.542 145.906 163.664 145.781 163.766C145.656 163.865 145.514 163.94 145.355 163.992C145.197 164.044 145.023 164.07 144.836 164.07ZM148.195 164V159.758H149.043V160.398H149.109C149.185 160.172 149.318 159.996 149.508 159.871C149.701 159.746 149.938 159.684 150.219 159.684C150.289 159.684 150.358 159.688 150.426 159.695C150.493 159.703 150.548 159.712 150.59 159.723V160.504C150.514 160.488 150.439 160.477 150.363 160.469C150.29 160.461 150.214 160.457 150.133 160.457C149.917 160.457 149.727 160.499 149.562 160.582C149.401 160.665 149.273 160.783 149.18 160.934C149.089 161.082 149.043 161.259 149.043 161.465V164H148.195ZM153.078 164.082C152.664 164.082 152.309 163.993 152.012 163.816C151.715 163.637 151.486 163.383 151.324 163.055C151.165 162.727 151.086 162.339 151.086 161.891V161.887C151.086 161.444 151.165 161.057 151.324 160.727C151.486 160.396 151.712 160.138 152.004 159.953C152.298 159.768 152.642 159.676 153.035 159.676C153.431 159.676 153.771 159.764 154.055 159.941C154.341 160.118 154.561 160.367 154.715 160.688C154.868 161.005 154.945 161.378 154.945 161.805V162.102H151.516V161.496H154.523L154.117 162.059V161.719C154.117 161.417 154.07 161.167 153.977 160.969C153.885 160.768 153.759 160.618 153.598 160.52C153.436 160.421 153.25 160.371 153.039 160.371C152.828 160.371 152.639 160.423 152.473 160.527C152.309 160.629 152.178 160.78 152.082 160.98C151.988 161.181 151.941 161.427 151.941 161.719V162.059C151.941 162.337 151.988 162.576 152.082 162.773C152.176 162.971 152.309 163.122 152.48 163.227C152.655 163.331 152.861 163.383 153.098 163.383C153.28 163.383 153.436 163.358 153.566 163.309C153.699 163.257 153.807 163.193 153.891 163.117C153.977 163.042 154.035 162.967 154.066 162.895L154.082 162.863H154.902L154.895 162.898C154.858 163.039 154.794 163.18 154.703 163.32C154.612 163.458 154.491 163.585 154.34 163.699C154.191 163.814 154.012 163.906 153.801 163.977C153.592 164.047 153.352 164.082 153.078 164.082ZM159.734 164.027C159.271 164.027 158.935 163.939 158.727 163.762C158.521 163.582 158.418 163.289 158.418 162.883V160.426H157.754V159.758H158.418V158.688H159.285V159.758H160.195V160.426H159.285V162.676C159.285 162.905 159.331 163.07 159.422 163.172C159.513 163.271 159.664 163.32 159.875 163.32C159.938 163.32 159.991 163.319 160.035 163.316C160.082 163.314 160.135 163.31 160.195 163.305V163.984C160.128 163.995 160.055 164.004 159.977 164.012C159.898 164.022 159.818 164.027 159.734 164.027ZM161.227 164V158.094H162.074V160.398H162.141C162.245 160.172 162.398 159.995 162.602 159.867C162.805 159.74 163.061 159.676 163.371 159.676C163.686 159.676 163.953 159.737 164.172 159.859C164.391 159.982 164.557 160.161 164.672 160.398C164.786 160.633 164.844 160.918 164.844 161.254V164H163.992V161.453C163.992 161.099 163.918 160.836 163.77 160.664C163.624 160.49 163.395 160.402 163.082 160.402C162.876 160.402 162.698 160.448 162.547 160.539C162.396 160.628 162.279 160.755 162.195 160.922C162.115 161.086 162.074 161.283 162.074 161.512V164H161.227ZM167.805 164.082C167.391 164.082 167.035 163.993 166.738 163.816C166.441 163.637 166.212 163.383 166.051 163.055C165.892 162.727 165.812 162.339 165.812 161.891V161.887C165.812 161.444 165.892 161.057 166.051 160.727C166.212 160.396 166.439 160.138 166.73 159.953C167.025 159.768 167.368 159.676 167.762 159.676C168.158 159.676 168.497 159.764 168.781 159.941C169.068 160.118 169.288 160.367 169.441 160.688C169.595 161.005 169.672 161.378 169.672 161.805V162.102H166.242V161.496H169.25L168.844 162.059V161.719C168.844 161.417 168.797 161.167 168.703 160.969C168.612 160.768 168.486 160.618 168.324 160.52C168.163 160.421 167.977 160.371 167.766 160.371C167.555 160.371 167.366 160.423 167.199 160.527C167.035 160.629 166.905 160.78 166.809 160.98C166.715 161.181 166.668 161.427 166.668 161.719V162.059C166.668 162.337 166.715 162.576 166.809 162.773C166.902 162.971 167.035 163.122 167.207 163.227C167.382 163.331 167.587 163.383 167.824 163.383C168.007 163.383 168.163 163.358 168.293 163.309C168.426 163.257 168.534 163.193 168.617 163.117C168.703 163.042 168.762 162.967 168.793 162.895L168.809 162.863H169.629L169.621 162.898C169.585 163.039 169.521 163.18 169.43 163.32C169.339 163.458 169.217 163.585 169.066 163.699C168.918 163.814 168.738 163.906 168.527 163.977C168.319 164.047 168.078 164.082 167.805 164.082ZM174.406 164.07C174.052 164.07 173.742 163.982 173.477 163.805C173.214 163.625 173.009 163.371 172.863 163.043C172.72 162.715 172.648 162.328 172.648 161.883V161.875C172.648 161.427 172.72 161.039 172.863 160.711C173.007 160.383 173.21 160.13 173.473 159.953C173.736 159.773 174.047 159.684 174.406 159.684C174.602 159.684 174.784 159.715 174.953 159.777C175.122 159.837 175.272 159.923 175.402 160.035C175.533 160.145 175.635 160.276 175.711 160.43H175.773V158.094H176.625V164H175.773V163.332H175.711C175.628 163.486 175.522 163.618 175.395 163.73C175.267 163.84 175.12 163.924 174.953 163.984C174.786 164.042 174.604 164.07 174.406 164.07ZM174.648 163.344C174.883 163.344 175.086 163.285 175.258 163.168C175.43 163.051 175.561 162.883 175.652 162.664C175.743 162.443 175.789 162.182 175.789 161.883V161.875C175.789 161.573 175.742 161.312 175.648 161.094C175.557 160.875 175.426 160.707 175.254 160.59C175.085 160.47 174.883 160.41 174.648 160.41C174.414 160.41 174.211 160.47 174.039 160.59C173.87 160.707 173.74 160.875 173.648 161.094C173.56 161.31 173.516 161.57 173.516 161.875V161.883C173.516 162.185 173.56 162.445 173.648 162.664C173.74 162.883 173.87 163.051 174.039 163.168C174.211 163.285 174.414 163.344 174.648 163.344ZM179.664 164.082C179.25 164.082 178.895 163.993 178.598 163.816C178.301 163.637 178.072 163.383 177.91 163.055C177.751 162.727 177.672 162.339 177.672 161.891V161.887C177.672 161.444 177.751 161.057 177.91 160.727C178.072 160.396 178.298 160.138 178.59 159.953C178.884 159.768 179.228 159.676 179.621 159.676C180.017 159.676 180.357 159.764 180.641 159.941C180.927 160.118 181.147 160.367 181.301 160.688C181.454 161.005 181.531 161.378 181.531 161.805V162.102H178.102V161.496H181.109L180.703 162.059V161.719C180.703 161.417 180.656 161.167 180.562 160.969C180.471 160.768 180.345 160.618 180.184 160.52C180.022 160.421 179.836 160.371 179.625 160.371C179.414 160.371 179.225 160.423 179.059 160.527C178.895 160.629 178.764 160.78 178.668 160.98C178.574 161.181 178.527 161.427 178.527 161.719V162.059C178.527 162.337 178.574 162.576 178.668 162.773C178.762 162.971 178.895 163.122 179.066 163.227C179.241 163.331 179.447 163.383 179.684 163.383C179.866 163.383 180.022 163.358 180.152 163.309C180.285 163.257 180.393 163.193 180.477 163.117C180.562 163.042 180.621 162.967 180.652 162.895L180.668 162.863H181.488L181.48 162.898C181.444 163.039 181.38 163.18 181.289 163.32C181.198 163.458 181.077 163.585 180.926 163.699C180.777 163.814 180.598 163.906 180.387 163.977C180.178 164.047 179.938 164.082 179.664 164.082ZM184.141 164.027C183.677 164.027 183.341 163.939 183.133 163.762C182.927 163.582 182.824 163.289 182.824 162.883V160.426H182.16V159.758H182.824V158.688H183.691V159.758H184.602V160.426H183.691V162.676C183.691 162.905 183.737 163.07 183.828 163.172C183.919 163.271 184.07 163.32 184.281 163.32C184.344 163.32 184.397 163.319 184.441 163.316C184.488 163.314 184.542 163.31 184.602 163.305V163.984C184.534 163.995 184.461 164.004 184.383 164.012C184.305 164.022 184.224 164.027 184.141 164.027ZM186.758 164.07C186.49 164.07 186.249 164.02 186.035 163.918C185.824 163.814 185.658 163.667 185.535 163.477C185.413 163.286 185.352 163.064 185.352 162.809V162.801C185.352 162.546 185.413 162.328 185.535 162.148C185.66 161.969 185.84 161.828 186.074 161.727C186.311 161.622 186.598 161.56 186.934 161.539L188.5 161.445V162.043L187.051 162.137C186.759 162.155 186.544 162.217 186.406 162.324C186.268 162.428 186.199 162.576 186.199 162.766V162.773C186.199 162.966 186.273 163.118 186.422 163.23C186.57 163.34 186.758 163.395 186.984 163.395C187.195 163.395 187.383 163.353 187.547 163.27C187.714 163.184 187.844 163.069 187.938 162.926C188.031 162.78 188.078 162.616 188.078 162.434V161.098C188.078 160.863 188.005 160.685 187.859 160.562C187.716 160.438 187.503 160.375 187.219 160.375C186.982 160.375 186.788 160.417 186.637 160.5C186.488 160.583 186.389 160.701 186.34 160.852L186.332 160.863H185.516L185.52 160.836C185.553 160.602 185.646 160.398 185.797 160.227C185.951 160.052 186.151 159.917 186.398 159.82C186.648 159.724 186.934 159.676 187.254 159.676C187.611 159.676 187.913 159.733 188.16 159.848C188.41 159.96 188.599 160.122 188.727 160.336C188.857 160.547 188.922 160.801 188.922 161.098V164H188.078V163.398H188.016C187.932 163.542 187.828 163.664 187.703 163.766C187.578 163.865 187.436 163.94 187.277 163.992C187.118 164.044 186.945 164.07 186.758 164.07ZM190.129 164V159.758H190.98V164H190.129ZM190.559 159C190.413 159 190.288 158.948 190.184 158.844C190.079 158.74 190.027 158.615 190.027 158.469C190.027 158.323 190.079 158.199 190.184 158.098C190.288 157.993 190.413 157.941 190.559 157.941C190.704 157.941 190.829 157.993 190.934 158.098C191.038 158.199 191.09 158.323 191.09 158.469C191.09 158.615 191.038 158.74 190.934 158.844C190.829 158.948 190.704 159 190.559 159ZM192.25 164V158.094H193.098V164H192.25ZM196.141 164.082C195.727 164.082 195.371 163.993 195.074 163.816C194.777 163.637 194.548 163.383 194.387 163.055C194.228 162.727 194.148 162.339 194.148 161.891V161.887C194.148 161.444 194.228 161.057 194.387 160.727C194.548 160.396 194.775 160.138 195.066 159.953C195.361 159.768 195.704 159.676 196.098 159.676C196.493 159.676 196.833 159.764 197.117 159.941C197.404 160.118 197.624 160.367 197.777 160.688C197.931 161.005 198.008 161.378 198.008 161.805V162.102H194.578V161.496H197.586L197.18 162.059V161.719C197.18 161.417 197.133 161.167 197.039 160.969C196.948 160.768 196.822 160.618 196.66 160.52C196.499 160.421 196.312 160.371 196.102 160.371C195.891 160.371 195.702 160.423 195.535 160.527C195.371 160.629 195.241 160.78 195.145 160.98C195.051 161.181 195.004 161.427 195.004 161.719V162.059C195.004 162.337 195.051 162.576 195.145 162.773C195.238 162.971 195.371 163.122 195.543 163.227C195.717 163.331 195.923 163.383 196.16 163.383C196.342 163.383 196.499 163.358 196.629 163.309C196.762 163.257 196.87 163.193 196.953 163.117C197.039 163.042 197.098 162.967 197.129 162.895L197.145 162.863H197.965L197.957 162.898C197.921 163.039 197.857 163.18 197.766 163.32C197.674 163.458 197.553 163.585 197.402 163.699C197.254 163.814 197.074 163.906 196.863 163.977C196.655 164.047 196.414 164.082 196.141 164.082ZM200.562 164.07C200.208 164.07 199.898 163.982 199.633 163.805C199.37 163.625 199.165 163.371 199.02 163.043C198.876 162.715 198.805 162.328 198.805 161.883V161.875C198.805 161.427 198.876 161.039 199.02 160.711C199.163 160.383 199.366 160.13 199.629 159.953C199.892 159.773 200.203 159.684 200.562 159.684C200.758 159.684 200.94 159.715 201.109 159.777C201.279 159.837 201.428 159.923 201.559 160.035C201.689 160.145 201.792 160.276 201.867 160.43H201.93V158.094H202.781V164H201.93V163.332H201.867C201.784 163.486 201.678 163.618 201.551 163.73C201.423 163.84 201.276 163.924 201.109 163.984C200.943 164.042 200.76 164.07 200.562 164.07ZM200.805 163.344C201.039 163.344 201.242 163.285 201.414 163.168C201.586 163.051 201.717 162.883 201.809 162.664C201.9 162.443 201.945 162.182 201.945 161.883V161.875C201.945 161.573 201.898 161.312 201.805 161.094C201.714 160.875 201.582 160.707 201.41 160.59C201.241 160.47 201.039 160.41 200.805 160.41C200.57 160.41 200.367 160.47 200.195 160.59C200.026 160.707 199.896 160.875 199.805 161.094C199.716 161.31 199.672 161.57 199.672 161.875V161.883C199.672 162.185 199.716 162.445 199.805 162.664C199.896 162.883 200.026 163.051 200.195 163.168C200.367 163.285 200.57 163.344 200.805 163.344ZM207.82 164.027C207.357 164.027 207.021 163.939 206.812 163.762C206.607 163.582 206.504 163.289 206.504 162.883V160.426H205.84V159.758H206.504V158.688H207.371V159.758H208.281V160.426H207.371V162.676C207.371 162.905 207.417 163.07 207.508 163.172C207.599 163.271 207.75 163.32 207.961 163.32C208.023 163.32 208.077 163.319 208.121 163.316C208.168 163.314 208.221 163.31 208.281 163.305V163.984C208.214 163.995 208.141 164.004 208.062 164.012C207.984 164.022 207.904 164.027 207.82 164.027ZM209.285 164V159.758H210.137V164H209.285ZM209.715 159C209.569 159 209.444 158.948 209.34 158.844C209.236 158.74 209.184 158.615 209.184 158.469C209.184 158.323 209.236 158.199 209.34 158.098C209.444 157.993 209.569 157.941 209.715 157.941C209.861 157.941 209.986 157.993 210.09 158.098C210.194 158.199 210.246 158.323 210.246 158.469C210.246 158.615 210.194 158.74 210.09 158.844C209.986 158.948 209.861 159 209.715 159ZM211.367 164V159.758H212.215V160.41H212.281C212.375 160.176 212.521 159.995 212.719 159.867C212.919 159.74 213.159 159.676 213.438 159.676C213.63 159.676 213.803 159.707 213.957 159.77C214.111 159.832 214.242 159.921 214.352 160.035C214.464 160.147 214.551 160.28 214.613 160.434H214.68C214.75 160.28 214.849 160.147 214.977 160.035C215.104 159.921 215.253 159.832 215.422 159.77C215.594 159.707 215.776 159.676 215.969 159.676C216.255 159.676 216.5 159.732 216.703 159.844C216.906 159.953 217.061 160.112 217.168 160.32C217.275 160.529 217.328 160.78 217.328 161.074V164H216.48V161.277C216.48 161.082 216.451 160.921 216.391 160.793C216.331 160.663 216.24 160.565 216.117 160.5C215.997 160.435 215.846 160.402 215.664 160.402C215.484 160.402 215.327 160.444 215.191 160.527C215.059 160.608 214.954 160.717 214.879 160.855C214.806 160.991 214.77 161.145 214.77 161.316V164H213.922V161.191C213.922 161.03 213.888 160.891 213.82 160.773C213.755 160.654 213.661 160.562 213.539 160.5C213.417 160.435 213.272 160.402 213.105 160.402C212.936 160.402 212.784 160.447 212.648 160.535C212.516 160.624 212.41 160.743 212.332 160.895C212.254 161.043 212.215 161.21 212.215 161.395V164H211.367ZM220.297 164.082C219.883 164.082 219.527 163.993 219.23 163.816C218.934 163.637 218.704 163.383 218.543 163.055C218.384 162.727 218.305 162.339 218.305 161.891V161.887C218.305 161.444 218.384 161.057 218.543 160.727C218.704 160.396 218.931 160.138 219.223 159.953C219.517 159.768 219.861 159.676 220.254 159.676C220.65 159.676 220.99 159.764 221.273 159.941C221.56 160.118 221.78 160.367 221.934 160.688C222.087 161.005 222.164 161.378 222.164 161.805V162.102H218.734V161.496H221.742L221.336 162.059V161.719C221.336 161.417 221.289 161.167 221.195 160.969C221.104 160.768 220.978 160.618 220.816 160.52C220.655 160.421 220.469 160.371 220.258 160.371C220.047 160.371 219.858 160.423 219.691 160.527C219.527 160.629 219.397 160.78 219.301 160.98C219.207 161.181 219.16 161.427 219.16 161.719V162.059C219.16 162.337 219.207 162.576 219.301 162.773C219.395 162.971 219.527 163.122 219.699 163.227C219.874 163.331 220.079 163.383 220.316 163.383C220.499 163.383 220.655 163.358 220.785 163.309C220.918 163.257 221.026 163.193 221.109 163.117C221.195 163.042 221.254 162.967 221.285 162.895L221.301 162.863H222.121L222.113 162.898C222.077 163.039 222.013 163.18 221.922 163.32C221.831 163.458 221.71 163.585 221.559 163.699C221.41 163.814 221.23 163.906 221.02 163.977C220.811 164.047 220.57 164.082 220.297 164.082ZM223.211 164V158.094H224.059V164H223.211ZM225.332 164V159.758H226.184V164H225.332ZM225.762 159C225.616 159 225.491 158.948 225.387 158.844C225.283 158.74 225.23 158.615 225.23 158.469C225.23 158.323 225.283 158.199 225.387 158.098C225.491 157.993 225.616 157.941 225.762 157.941C225.908 157.941 226.033 157.993 226.137 158.098C226.241 158.199 226.293 158.323 226.293 158.469C226.293 158.615 226.241 158.74 226.137 158.844C226.033 158.948 225.908 159 225.762 159ZM227.414 164V159.758H228.262V160.398H228.328C228.432 160.172 228.586 159.995 228.789 159.867C228.992 159.74 229.249 159.676 229.559 159.676C230.035 159.676 230.4 159.812 230.652 160.086C230.905 160.359 231.031 160.749 231.031 161.254V164H230.18V161.453C230.18 161.099 230.105 160.836 229.957 160.664C229.811 160.49 229.582 160.402 229.27 160.402C229.064 160.402 228.885 160.448 228.734 160.539C228.583 160.628 228.466 160.755 228.383 160.922C228.302 161.086 228.262 161.283 228.262 161.512V164H227.414ZM233.992 164.082C233.578 164.082 233.223 163.993 232.926 163.816C232.629 163.637 232.4 163.383 232.238 163.055C232.079 162.727 232 162.339 232 161.891V161.887C232 161.444 232.079 161.057 232.238 160.727C232.4 160.396 232.626 160.138 232.918 159.953C233.212 159.768 233.556 159.676 233.949 159.676C234.345 159.676 234.685 159.764 234.969 159.941C235.255 160.118 235.475 160.367 235.629 160.688C235.783 161.005 235.859 161.378 235.859 161.805V162.102H232.43V161.496H235.438L235.031 162.059V161.719C235.031 161.417 234.984 161.167 234.891 160.969C234.799 160.768 234.673 160.618 234.512 160.52C234.35 160.421 234.164 160.371 233.953 160.371C233.742 160.371 233.553 160.423 233.387 160.527C233.223 160.629 233.092 160.78 232.996 160.98C232.902 161.181 232.855 161.427 232.855 161.719V162.059C232.855 162.337 232.902 162.576 232.996 162.773C233.09 162.971 233.223 163.122 233.395 163.227C233.569 163.331 233.775 163.383 234.012 163.383C234.194 163.383 234.35 163.358 234.48 163.309C234.613 163.257 234.721 163.193 234.805 163.117C234.891 163.042 234.949 162.967 234.98 162.895L234.996 162.863H235.816L235.809 162.898C235.772 163.039 235.708 163.18 235.617 163.32C235.526 163.458 235.405 163.585 235.254 163.699C235.105 163.814 234.926 163.906 234.715 163.977C234.507 164.047 234.266 164.082 233.992 164.082ZM240.211 164.07C239.943 164.07 239.702 164.02 239.488 163.918C239.277 163.814 239.111 163.667 238.988 163.477C238.866 163.286 238.805 163.064 238.805 162.809V162.801C238.805 162.546 238.866 162.328 238.988 162.148C239.113 161.969 239.293 161.828 239.527 161.727C239.764 161.622 240.051 161.56 240.387 161.539L241.953 161.445V162.043L240.504 162.137C240.212 162.155 239.997 162.217 239.859 162.324C239.721 162.428 239.652 162.576 239.652 162.766V162.773C239.652 162.966 239.727 163.118 239.875 163.23C240.023 163.34 240.211 163.395 240.438 163.395C240.648 163.395 240.836 163.353 241 163.27C241.167 163.184 241.297 163.069 241.391 162.926C241.484 162.78 241.531 162.616 241.531 162.434V161.098C241.531 160.863 241.458 160.685 241.312 160.562C241.169 160.438 240.956 160.375 240.672 160.375C240.435 160.375 240.241 160.417 240.09 160.5C239.941 160.583 239.842 160.701 239.793 160.852L239.785 160.863H238.969L238.973 160.836C239.007 160.602 239.099 160.398 239.25 160.227C239.404 160.052 239.604 159.917 239.852 159.82C240.102 159.724 240.387 159.676 240.707 159.676C241.064 159.676 241.366 159.733 241.613 159.848C241.863 159.96 242.052 160.122 242.18 160.336C242.31 160.547 242.375 160.801 242.375 161.098V164H241.531V163.398H241.469C241.385 163.542 241.281 163.664 241.156 163.766C241.031 163.865 240.889 163.94 240.73 163.992C240.572 164.044 240.398 164.07 240.211 164.07ZM243.57 164V159.758H244.418V160.398H244.484C244.589 160.172 244.742 159.995 244.945 159.867C245.148 159.74 245.405 159.676 245.715 159.676C246.191 159.676 246.556 159.812 246.809 160.086C247.061 160.359 247.188 160.749 247.188 161.254V164H246.336V161.453C246.336 161.099 246.262 160.836 246.113 160.664C245.967 160.49 245.738 160.402 245.426 160.402C245.22 160.402 245.042 160.448 244.891 160.539C244.74 160.628 244.622 160.755 244.539 160.922C244.458 161.086 244.418 161.283 244.418 161.512V164H243.57ZM249.914 164.07C249.56 164.07 249.25 163.982 248.984 163.805C248.721 163.625 248.517 163.371 248.371 163.043C248.228 162.715 248.156 162.328 248.156 161.883V161.875C248.156 161.427 248.228 161.039 248.371 160.711C248.514 160.383 248.717 160.13 248.98 159.953C249.243 159.773 249.555 159.684 249.914 159.684C250.109 159.684 250.292 159.715 250.461 159.777C250.63 159.837 250.78 159.923 250.91 160.035C251.04 160.145 251.143 160.276 251.219 160.43H251.281V158.094H252.133V164H251.281V163.332H251.219C251.135 163.486 251.03 163.618 250.902 163.73C250.775 163.84 250.628 163.924 250.461 163.984C250.294 164.042 250.112 164.07 249.914 164.07ZM250.156 163.344C250.391 163.344 250.594 163.285 250.766 163.168C250.938 163.051 251.069 162.883 251.16 162.664C251.251 162.443 251.297 162.182 251.297 161.883V161.875C251.297 161.573 251.25 161.312 251.156 161.094C251.065 160.875 250.934 160.707 250.762 160.59C250.592 160.47 250.391 160.41 250.156 160.41C249.922 160.41 249.719 160.47 249.547 160.59C249.378 160.707 249.247 160.875 249.156 161.094C249.068 161.31 249.023 161.57 249.023 161.875V161.883C249.023 162.185 249.068 162.445 249.156 162.664C249.247 162.883 249.378 163.051 249.547 163.168C249.719 163.285 249.922 163.344 250.156 163.344ZM257.355 164.082C256.944 164.082 256.589 163.993 256.289 163.816C255.992 163.637 255.763 163.382 255.602 163.051C255.44 162.72 255.359 162.326 255.359 161.867V161.859C255.359 161.409 255.439 161.021 255.598 160.695C255.759 160.37 255.988 160.118 256.285 159.941C256.585 159.764 256.94 159.676 257.352 159.676C257.708 159.676 258.014 159.738 258.27 159.863C258.527 159.986 258.732 160.155 258.883 160.371C259.036 160.585 259.133 160.828 259.172 161.102L259.176 161.121H258.359L258.355 161.113C258.309 160.905 258.201 160.732 258.031 160.594C257.862 160.453 257.637 160.383 257.355 160.383C257.121 160.383 256.919 160.443 256.75 160.562C256.581 160.68 256.451 160.849 256.359 161.07C256.271 161.292 256.227 161.555 256.227 161.859V161.867C256.227 162.18 256.272 162.448 256.363 162.672C256.454 162.896 256.585 163.069 256.754 163.191C256.923 163.311 257.124 163.371 257.355 163.371C257.621 163.371 257.836 163.312 258 163.195C258.167 163.078 258.284 162.905 258.352 162.676L258.359 162.656L259.172 162.652L259.164 162.688C259.115 162.964 259.014 163.206 258.863 163.414C258.712 163.622 258.51 163.786 258.258 163.906C258.008 164.023 257.707 164.082 257.355 164.082ZM261.93 164.082C261.516 164.082 261.158 163.993 260.855 163.816C260.556 163.639 260.326 163.387 260.164 163.059C260.003 162.728 259.922 162.336 259.922 161.883V161.875C259.922 161.419 260.003 161.027 260.164 160.699C260.328 160.371 260.56 160.118 260.859 159.941C261.161 159.764 261.518 159.676 261.93 159.676C262.344 159.676 262.701 159.764 263 159.941C263.299 160.116 263.53 160.368 263.691 160.699C263.855 161.027 263.938 161.419 263.938 161.875V161.883C263.938 162.336 263.855 162.728 263.691 163.059C263.53 163.387 263.299 163.639 263 163.816C262.703 163.993 262.346 164.082 261.93 164.082ZM261.93 163.371C262.172 163.371 262.378 163.312 262.547 163.195C262.716 163.076 262.845 162.905 262.934 162.684C263.022 162.462 263.066 162.195 263.066 161.883V161.875C263.066 161.56 263.022 161.292 262.934 161.07C262.845 160.849 262.716 160.68 262.547 160.562C262.378 160.443 262.172 160.383 261.93 160.383C261.688 160.383 261.482 160.443 261.312 160.562C261.143 160.68 261.013 160.849 260.922 161.07C260.833 161.292 260.789 161.56 260.789 161.875V161.883C260.789 162.195 260.833 162.462 260.922 162.684C261.013 162.905 261.143 163.076 261.312 163.195C261.482 163.312 261.688 163.371 261.93 163.371ZM266.488 164.082C266.147 164.082 265.85 164.033 265.598 163.934C265.345 163.832 265.145 163.693 264.996 163.516C264.848 163.336 264.76 163.128 264.734 162.891V162.883H265.586V162.891C265.641 163.049 265.745 163.178 265.898 163.277C266.052 163.376 266.255 163.426 266.508 163.426C266.682 163.426 266.835 163.401 266.965 163.352C267.098 163.302 267.202 163.233 267.277 163.145C267.353 163.056 267.391 162.954 267.391 162.84V162.832C267.391 162.699 267.337 162.587 267.23 162.496C267.124 162.405 266.948 162.331 266.703 162.273L266.023 162.117C265.758 162.057 265.538 161.975 265.363 161.871C265.189 161.767 265.06 161.639 264.977 161.488C264.893 161.335 264.852 161.155 264.852 160.949V160.945C264.852 160.698 264.922 160.479 265.062 160.289C265.203 160.096 265.397 159.947 265.645 159.84C265.895 159.73 266.18 159.676 266.5 159.676C266.823 159.676 267.104 159.727 267.344 159.828C267.586 159.927 267.777 160.065 267.918 160.242C268.059 160.417 268.142 160.62 268.168 160.852V160.855H267.355V160.848C267.316 160.699 267.223 160.576 267.074 160.477C266.928 160.378 266.736 160.328 266.496 160.328C266.342 160.328 266.206 160.353 266.086 160.402C265.966 160.449 265.871 160.516 265.801 160.602C265.733 160.685 265.699 160.784 265.699 160.898V160.906C265.699 160.995 265.721 161.073 265.766 161.141C265.812 161.206 265.885 161.264 265.984 161.316C266.083 161.366 266.211 161.41 266.367 161.449L267.043 161.602C267.449 161.698 267.751 161.837 267.949 162.02C268.15 162.202 268.25 162.447 268.25 162.754V162.762C268.25 163.022 268.173 163.253 268.02 163.453C267.866 163.651 267.656 163.806 267.391 163.918C267.128 164.027 266.827 164.082 266.488 164.082ZM270.828 164.027C270.365 164.027 270.029 163.939 269.82 163.762C269.615 163.582 269.512 163.289 269.512 162.883V160.426H268.848V159.758H269.512V158.688H270.379V159.758H271.289V160.426H270.379V162.676C270.379 162.905 270.424 163.07 270.516 163.172C270.607 163.271 270.758 163.32 270.969 163.32C271.031 163.32 271.085 163.319 271.129 163.316C271.176 163.314 271.229 163.31 271.289 163.305V163.984C271.221 163.995 271.148 164.004 271.07 164.012C270.992 164.022 270.911 164.027 270.828 164.027ZM276.242 164.082C275.828 164.082 275.473 163.993 275.176 163.816C274.879 163.637 274.65 163.383 274.488 163.055C274.329 162.727 274.25 162.339 274.25 161.891V161.887C274.25 161.444 274.329 161.057 274.488 160.727C274.65 160.396 274.876 160.138 275.168 159.953C275.462 159.768 275.806 159.676 276.199 159.676C276.595 159.676 276.935 159.764 277.219 159.941C277.505 160.118 277.725 160.367 277.879 160.688C278.033 161.005 278.109 161.378 278.109 161.805V162.102H274.68V161.496H277.688L277.281 162.059V161.719C277.281 161.417 277.234 161.167 277.141 160.969C277.049 160.768 276.923 160.618 276.762 160.52C276.6 160.421 276.414 160.371 276.203 160.371C275.992 160.371 275.803 160.423 275.637 160.527C275.473 160.629 275.342 160.78 275.246 160.98C275.152 161.181 275.105 161.427 275.105 161.719V162.059C275.105 162.337 275.152 162.576 275.246 162.773C275.34 162.971 275.473 163.122 275.645 163.227C275.819 163.331 276.025 163.383 276.262 163.383C276.444 163.383 276.6 163.358 276.73 163.309C276.863 163.257 276.971 163.193 277.055 163.117C277.141 163.042 277.199 162.967 277.23 162.895L277.246 162.863H278.066L278.059 162.898C278.022 163.039 277.958 163.18 277.867 163.32C277.776 163.458 277.655 163.585 277.504 163.699C277.355 163.814 277.176 163.906 276.965 163.977C276.757 164.047 276.516 164.082 276.242 164.082ZM280.66 164.082C280.319 164.082 280.022 164.033 279.77 163.934C279.517 163.832 279.316 163.693 279.168 163.516C279.02 163.336 278.932 163.128 278.906 162.891V162.883H279.758V162.891C279.812 163.049 279.917 163.178 280.07 163.277C280.224 163.376 280.427 163.426 280.68 163.426C280.854 163.426 281.007 163.401 281.137 163.352C281.27 163.302 281.374 163.233 281.449 163.145C281.525 163.056 281.562 162.954 281.562 162.84V162.832C281.562 162.699 281.509 162.587 281.402 162.496C281.296 162.405 281.12 162.331 280.875 162.273L280.195 162.117C279.93 162.057 279.71 161.975 279.535 161.871C279.361 161.767 279.232 161.639 279.148 161.488C279.065 161.335 279.023 161.155 279.023 160.949V160.945C279.023 160.698 279.094 160.479 279.234 160.289C279.375 160.096 279.569 159.947 279.816 159.84C280.066 159.73 280.352 159.676 280.672 159.676C280.995 159.676 281.276 159.727 281.516 159.828C281.758 159.927 281.949 160.065 282.09 160.242C282.23 160.417 282.314 160.62 282.34 160.852V160.855H281.527V160.848C281.488 160.699 281.395 160.576 281.246 160.477C281.1 160.378 280.908 160.328 280.668 160.328C280.514 160.328 280.378 160.353 280.258 160.402C280.138 160.449 280.043 160.516 279.973 160.602C279.905 160.685 279.871 160.784 279.871 160.898V160.906C279.871 160.995 279.893 161.073 279.938 161.141C279.984 161.206 280.057 161.264 280.156 161.316C280.255 161.366 280.383 161.41 280.539 161.449L281.215 161.602C281.621 161.698 281.923 161.837 282.121 162.02C282.322 162.202 282.422 162.447 282.422 162.754V162.762C282.422 163.022 282.345 163.253 282.191 163.453C282.038 163.651 281.828 163.806 281.562 163.918C281.299 164.027 280.999 164.082 280.66 164.082ZM285 164.027C284.536 164.027 284.201 163.939 283.992 163.762C283.786 163.582 283.684 163.289 283.684 162.883V160.426H283.02V159.758H283.684V158.688H284.551V159.758H285.461V160.426H284.551V162.676C284.551 162.905 284.596 163.07 284.688 163.172C284.779 163.271 284.93 163.32 285.141 163.32C285.203 163.32 285.257 163.319 285.301 163.316C285.348 163.314 285.401 163.31 285.461 163.305V163.984C285.393 163.995 285.32 164.004 285.242 164.012C285.164 164.022 285.083 164.027 285 164.027ZM286.465 164V159.758H287.316V164H286.465ZM286.895 159C286.749 159 286.624 158.948 286.52 158.844C286.415 158.74 286.363 158.615 286.363 158.469C286.363 158.323 286.415 158.199 286.52 158.098C286.624 157.993 286.749 157.941 286.895 157.941C287.04 157.941 287.165 157.993 287.27 158.098C287.374 158.199 287.426 158.323 287.426 158.469C287.426 158.615 287.374 158.74 287.27 158.844C287.165 158.948 287.04 159 286.895 159ZM288.547 164V159.758H289.395V160.41H289.461C289.555 160.176 289.701 159.995 289.898 159.867C290.099 159.74 290.339 159.676 290.617 159.676C290.81 159.676 290.983 159.707 291.137 159.77C291.29 159.832 291.422 159.921 291.531 160.035C291.643 160.147 291.73 160.28 291.793 160.434H291.859C291.93 160.28 292.029 160.147 292.156 160.035C292.284 159.921 292.432 159.832 292.602 159.77C292.773 159.707 292.956 159.676 293.148 159.676C293.435 159.676 293.68 159.732 293.883 159.844C294.086 159.953 294.241 160.112 294.348 160.32C294.454 160.529 294.508 160.78 294.508 161.074V164H293.66V161.277C293.66 161.082 293.63 160.921 293.57 160.793C293.51 160.663 293.419 160.565 293.297 160.5C293.177 160.435 293.026 160.402 292.844 160.402C292.664 160.402 292.507 160.444 292.371 160.527C292.238 160.608 292.134 160.717 292.059 160.855C291.986 160.991 291.949 161.145 291.949 161.316V164H291.102V161.191C291.102 161.03 291.068 160.891 291 160.773C290.935 160.654 290.841 160.562 290.719 160.5C290.596 160.435 290.452 160.402 290.285 160.402C290.116 160.402 289.964 160.447 289.828 160.535C289.695 160.624 289.59 160.743 289.512 160.895C289.434 161.043 289.395 161.21 289.395 161.395V164H288.547ZM296.859 164.07C296.591 164.07 296.35 164.02 296.137 163.918C295.926 163.814 295.759 163.667 295.637 163.477C295.514 163.286 295.453 163.064 295.453 162.809V162.801C295.453 162.546 295.514 162.328 295.637 162.148C295.762 161.969 295.941 161.828 296.176 161.727C296.413 161.622 296.699 161.56 297.035 161.539L298.602 161.445V162.043L297.152 162.137C296.861 162.155 296.646 162.217 296.508 162.324C296.37 162.428 296.301 162.576 296.301 162.766V162.773C296.301 162.966 296.375 163.118 296.523 163.23C296.672 163.34 296.859 163.395 297.086 163.395C297.297 163.395 297.484 163.353 297.648 163.27C297.815 163.184 297.945 163.069 298.039 162.926C298.133 162.78 298.18 162.616 298.18 162.434V161.098C298.18 160.863 298.107 160.685 297.961 160.562C297.818 160.438 297.604 160.375 297.32 160.375C297.083 160.375 296.889 160.417 296.738 160.5C296.59 160.583 296.491 160.701 296.441 160.852L296.434 160.863H295.617L295.621 160.836C295.655 160.602 295.747 160.398 295.898 160.227C296.052 160.052 296.253 159.917 296.5 159.82C296.75 159.724 297.035 159.676 297.355 159.676C297.712 159.676 298.014 159.733 298.262 159.848C298.512 159.96 298.701 160.122 298.828 160.336C298.958 160.547 299.023 160.801 299.023 161.098V164H298.18V163.398H298.117C298.034 163.542 297.93 163.664 297.805 163.766C297.68 163.865 297.538 163.94 297.379 163.992C297.22 164.044 297.047 164.07 296.859 164.07ZM301.82 164.027C301.357 164.027 301.021 163.939 300.812 163.762C300.607 163.582 300.504 163.289 300.504 162.883V160.426H299.84V159.758H300.504V158.688H301.371V159.758H302.281V160.426H301.371V162.676C301.371 162.905 301.417 163.07 301.508 163.172C301.599 163.271 301.75 163.32 301.961 163.32C302.023 163.32 302.077 163.319 302.121 163.316C302.168 163.314 302.221 163.31 302.281 163.305V163.984C302.214 163.995 302.141 164.004 302.062 164.012C301.984 164.022 301.904 164.027 301.82 164.027ZM305.008 164.082C304.594 164.082 304.238 163.993 303.941 163.816C303.645 163.637 303.415 163.383 303.254 163.055C303.095 162.727 303.016 162.339 303.016 161.891V161.887C303.016 161.444 303.095 161.057 303.254 160.727C303.415 160.396 303.642 160.138 303.934 159.953C304.228 159.768 304.572 159.676 304.965 159.676C305.361 159.676 305.701 159.764 305.984 159.941C306.271 160.118 306.491 160.367 306.645 160.688C306.798 161.005 306.875 161.378 306.875 161.805V162.102H303.445V161.496H306.453L306.047 162.059V161.719C306.047 161.417 306 161.167 305.906 160.969C305.815 160.768 305.689 160.618 305.527 160.52C305.366 160.421 305.18 160.371 304.969 160.371C304.758 160.371 304.569 160.423 304.402 160.527C304.238 160.629 304.108 160.78 304.012 160.98C303.918 161.181 303.871 161.427 303.871 161.719V162.059C303.871 162.337 303.918 162.576 304.012 162.773C304.105 162.971 304.238 163.122 304.41 163.227C304.585 163.331 304.79 163.383 305.027 163.383C305.21 163.383 305.366 163.358 305.496 163.309C305.629 163.257 305.737 163.193 305.82 163.117C305.906 163.042 305.965 162.967 305.996 162.895L306.012 162.863H306.832L306.824 162.898C306.788 163.039 306.724 163.18 306.633 163.32C306.542 163.458 306.421 163.585 306.27 163.699C306.121 163.814 305.941 163.906 305.73 163.977C305.522 164.047 305.281 164.082 305.008 164.082ZM310.363 164V160.426H309.664V159.758H310.363V159.312C310.363 159.029 310.41 158.794 310.504 158.609C310.6 158.422 310.746 158.283 310.941 158.191C311.137 158.1 311.383 158.055 311.68 158.055C311.773 158.055 311.861 158.059 311.941 158.066C312.025 158.072 312.104 158.081 312.18 158.094V158.719C312.141 158.711 312.092 158.706 312.035 158.703C311.98 158.698 311.921 158.695 311.855 158.695C311.621 158.695 311.453 158.751 311.352 158.863C311.253 158.975 311.203 159.138 311.203 159.352V159.758H312.141V160.426H311.211V164H310.363ZM314.727 164.082C314.312 164.082 313.954 163.993 313.652 163.816C313.353 163.639 313.122 163.387 312.961 163.059C312.799 162.728 312.719 162.336 312.719 161.883V161.875C312.719 161.419 312.799 161.027 312.961 160.699C313.125 160.371 313.357 160.118 313.656 159.941C313.958 159.764 314.315 159.676 314.727 159.676C315.141 159.676 315.497 159.764 315.797 159.941C316.096 160.116 316.327 160.368 316.488 160.699C316.652 161.027 316.734 161.419 316.734 161.875V161.883C316.734 162.336 316.652 162.728 316.488 163.059C316.327 163.387 316.096 163.639 315.797 163.816C315.5 163.993 315.143 164.082 314.727 164.082ZM314.727 163.371C314.969 163.371 315.174 163.312 315.344 163.195C315.513 163.076 315.642 162.905 315.73 162.684C315.819 162.462 315.863 162.195 315.863 161.883V161.875C315.863 161.56 315.819 161.292 315.73 161.07C315.642 160.849 315.513 160.68 315.344 160.562C315.174 160.443 314.969 160.383 314.727 160.383C314.484 160.383 314.279 160.443 314.109 160.562C313.94 160.68 313.81 160.849 313.719 161.07C313.63 161.292 313.586 161.56 313.586 161.875V161.883C313.586 162.195 313.63 162.462 313.719 162.684C313.81 162.905 313.94 163.076 314.109 163.195C314.279 163.312 314.484 163.371 314.727 163.371ZM317.742 164V159.758H318.59V160.398H318.656C318.732 160.172 318.865 159.996 319.055 159.871C319.247 159.746 319.484 159.684 319.766 159.684C319.836 159.684 319.905 159.688 319.973 159.695C320.04 159.703 320.095 159.712 320.137 159.723V160.504C320.061 160.488 319.986 160.477 319.91 160.469C319.837 160.461 319.76 160.457 319.68 160.457C319.464 160.457 319.273 160.499 319.109 160.582C318.948 160.665 318.82 160.783 318.727 160.934C318.635 161.082 318.59 161.259 318.59 161.465V164H317.742ZM49.2109 177.027C48.7474 177.027 48.4115 176.939 48.2031 176.762C47.9974 176.582 47.8945 176.289 47.8945 175.883V173.426H47.2305V172.758H47.8945V171.688H48.7617V172.758H49.6719V173.426H48.7617V175.676C48.7617 175.905 48.8073 176.07 48.8984 176.172C48.9896 176.271 49.1406 176.32 49.3516 176.32C49.4141 176.32 49.4674 176.319 49.5117 176.316C49.5586 176.314 49.612 176.31 49.6719 176.305V176.984C49.6042 176.995 49.5312 177.004 49.4531 177.012C49.375 177.022 49.2943 177.027 49.2109 177.027ZM50.7031 177V171.094H51.5508V173.398H51.6172C51.7214 173.172 51.875 172.995 52.0781 172.867C52.2812 172.74 52.5378 172.676 52.8477 172.676C53.1628 172.676 53.4297 172.737 53.6484 172.859C53.8672 172.982 54.0339 173.161 54.1484 173.398C54.263 173.633 54.3203 173.918 54.3203 174.254V177H53.4688V174.453C53.4688 174.099 53.3945 173.836 53.2461 173.664C53.1003 173.49 52.8711 173.402 52.5586 173.402C52.3529 173.402 52.1745 173.448 52.0234 173.539C51.8724 173.628 51.7552 173.755 51.6719 173.922C51.5911 174.086 51.5508 174.283 51.5508 174.512V177H50.7031ZM57.2812 177.082C56.8672 177.082 56.5117 176.993 56.2148 176.816C55.918 176.637 55.6888 176.383 55.5273 176.055C55.3685 175.727 55.2891 175.339 55.2891 174.891V174.887C55.2891 174.444 55.3685 174.057 55.5273 173.727C55.6888 173.396 55.9154 173.138 56.207 172.953C56.5013 172.768 56.8451 172.676 57.2383 172.676C57.6341 172.676 57.974 172.764 58.2578 172.941C58.5443 173.118 58.7643 173.367 58.918 173.688C59.0716 174.005 59.1484 174.378 59.1484 174.805V175.102H55.7188V174.496H58.7266L58.3203 175.059V174.719C58.3203 174.417 58.2734 174.167 58.1797 173.969C58.0885 173.768 57.9622 173.618 57.8008 173.52C57.6393 173.421 57.4531 173.371 57.2422 173.371C57.0312 173.371 56.8424 173.423 56.6758 173.527C56.5117 173.629 56.3815 173.78 56.2852 173.98C56.1914 174.181 56.1445 174.427 56.1445 174.719V175.059C56.1445 175.337 56.1914 175.576 56.2852 175.773C56.3789 175.971 56.5117 176.122 56.6836 176.227C56.8581 176.331 57.0638 176.383 57.3008 176.383C57.4831 176.383 57.6393 176.358 57.7695 176.309C57.9023 176.257 58.0104 176.193 58.0938 176.117C58.1797 176.042 58.2383 175.967 58.2695 175.895L58.2852 175.863H59.1055L59.0977 175.898C59.0612 176.039 58.9974 176.18 58.9062 176.32C58.8151 176.458 58.694 176.585 58.543 176.699C58.3945 176.814 58.2148 176.906 58.0039 176.977C57.7956 177.047 57.5547 177.082 57.2812 177.082ZM62.3359 178.414V172.758H63.1836V173.426H63.25C63.3307 173.27 63.4349 173.137 63.5625 173.027C63.6927 172.918 63.8411 172.833 64.0078 172.773C64.1745 172.714 64.3568 172.684 64.5547 172.684C64.9115 172.684 65.2214 172.775 65.4844 172.957C65.7474 173.137 65.9505 173.391 66.0938 173.719C66.2396 174.044 66.3125 174.43 66.3125 174.875V174.883C66.3125 175.331 66.2409 175.719 66.0977 176.047C65.9544 176.372 65.7513 176.625 65.4883 176.805C65.2253 176.982 64.9141 177.07 64.5547 177.07C64.3594 177.07 64.1771 177.04 64.0078 176.98C63.8385 176.918 63.6888 176.832 63.5586 176.723C63.4284 176.613 63.3255 176.482 63.25 176.328H63.1836V178.414H62.3359ZM64.3125 176.344C64.5495 176.344 64.7526 176.285 64.9219 176.168C65.0911 176.051 65.2201 175.883 65.3086 175.664C65.3997 175.445 65.4453 175.185 65.4453 174.883V174.875C65.4453 174.57 65.3997 174.309 65.3086 174.09C65.2201 173.871 65.0911 173.703 64.9219 173.586C64.7526 173.469 64.5495 173.41 64.3125 173.41C64.0781 173.41 63.875 173.47 63.7031 173.59C63.5312 173.707 63.3997 173.875 63.3086 174.094C63.2174 174.31 63.1719 174.57 63.1719 174.875V174.883C63.1719 175.182 63.2174 175.441 63.3086 175.66C63.3997 175.879 63.5312 176.048 63.7031 176.168C63.875 176.285 64.0781 176.344 64.3125 176.344ZM67.3281 177V172.758H68.1758V173.398H68.2422C68.3177 173.172 68.4505 172.996 68.6406 172.871C68.8333 172.746 69.0703 172.684 69.3516 172.684C69.4219 172.684 69.4909 172.688 69.5586 172.695C69.6263 172.703 69.681 172.712 69.7227 172.723V173.504C69.6471 173.488 69.5716 173.477 69.4961 173.469C69.4232 173.461 69.3464 173.457 69.2656 173.457C69.0495 173.457 68.8594 173.499 68.6953 173.582C68.5339 173.665 68.4062 173.783 68.3125 173.934C68.2214 174.082 68.1758 174.259 68.1758 174.465V177H67.3281ZM72.2266 177.082C71.8125 177.082 71.4544 176.993 71.1523 176.816C70.8529 176.639 70.6224 176.387 70.4609 176.059C70.2995 175.728 70.2188 175.336 70.2188 174.883V174.875C70.2188 174.419 70.2995 174.027 70.4609 173.699C70.625 173.371 70.8568 173.118 71.1562 172.941C71.4583 172.764 71.8151 172.676 72.2266 172.676C72.6406 172.676 72.9974 172.764 73.2969 172.941C73.5964 173.116 73.8268 173.368 73.9883 173.699C74.1523 174.027 74.2344 174.419 74.2344 174.875V174.883C74.2344 175.336 74.1523 175.728 73.9883 176.059C73.8268 176.387 73.5964 176.639 73.2969 176.816C73 176.993 72.6432 177.082 72.2266 177.082ZM72.2266 176.371C72.4688 176.371 72.6745 176.312 72.8438 176.195C73.013 176.076 73.1419 175.905 73.2305 175.684C73.319 175.462 73.3633 175.195 73.3633 174.883V174.875C73.3633 174.56 73.319 174.292 73.2305 174.07C73.1419 173.849 73.013 173.68 72.8438 173.562C72.6745 173.443 72.4688 173.383 72.2266 173.383C71.9844 173.383 71.7786 173.443 71.6094 173.562C71.4401 173.68 71.3099 173.849 71.2188 174.07C71.1302 174.292 71.0859 174.56 71.0859 174.875V174.883C71.0859 175.195 71.1302 175.462 71.2188 175.684C71.3099 175.905 71.4401 176.076 71.6094 176.195C71.7786 176.312 71.9844 176.371 72.2266 176.371ZM75.2422 178.414V172.758H76.0898V173.426H76.1562C76.237 173.27 76.3411 173.137 76.4688 173.027C76.599 172.918 76.7474 172.833 76.9141 172.773C77.0807 172.714 77.263 172.684 77.4609 172.684C77.8177 172.684 78.1276 172.775 78.3906 172.957C78.6536 173.137 78.8568 173.391 79 173.719C79.1458 174.044 79.2188 174.43 79.2188 174.875V174.883C79.2188 175.331 79.1471 175.719 79.0039 176.047C78.8607 176.372 78.6576 176.625 78.3945 176.805C78.1315 176.982 77.8203 177.07 77.4609 177.07C77.2656 177.07 77.0833 177.04 76.9141 176.98C76.7448 176.918 76.5951 176.832 76.4648 176.723C76.3346 176.613 76.2318 176.482 76.1562 176.328H76.0898V178.414H75.2422ZM77.2188 176.344C77.4557 176.344 77.6589 176.285 77.8281 176.168C77.9974 176.051 78.1263 175.883 78.2148 175.664C78.306 175.445 78.3516 175.185 78.3516 174.883V174.875C78.3516 174.57 78.306 174.309 78.2148 174.09C78.1263 173.871 77.9974 173.703 77.8281 173.586C77.6589 173.469 77.4557 173.41 77.2188 173.41C76.9844 173.41 76.7812 173.47 76.6094 173.59C76.4375 173.707 76.306 173.875 76.2148 174.094C76.1237 174.31 76.0781 174.57 76.0781 174.875V174.883C76.0781 175.182 76.1237 175.441 76.2148 175.66C76.306 175.879 76.4375 176.048 76.6094 176.168C76.7812 176.285 76.9844 176.344 77.2188 176.344ZM82.0312 177.082C81.6172 177.082 81.2591 176.993 80.957 176.816C80.6576 176.639 80.4271 176.387 80.2656 176.059C80.1042 175.728 80.0234 175.336 80.0234 174.883V174.875C80.0234 174.419 80.1042 174.027 80.2656 173.699C80.4297 173.371 80.6615 173.118 80.9609 172.941C81.263 172.764 81.6198 172.676 82.0312 172.676C82.4453 172.676 82.8021 172.764 83.1016 172.941C83.401 173.116 83.6315 173.368 83.793 173.699C83.957 174.027 84.0391 174.419 84.0391 174.875V174.883C84.0391 175.336 83.957 175.728 83.793 176.059C83.6315 176.387 83.401 176.639 83.1016 176.816C82.8047 176.993 82.4479 177.082 82.0312 177.082ZM82.0312 176.371C82.2734 176.371 82.4792 176.312 82.6484 176.195C82.8177 176.076 82.9466 175.905 83.0352 175.684C83.1237 175.462 83.168 175.195 83.168 174.883V174.875C83.168 174.56 83.1237 174.292 83.0352 174.07C82.9466 173.849 82.8177 173.68 82.6484 173.562C82.4792 173.443 82.2734 173.383 82.0312 173.383C81.7891 173.383 81.5833 173.443 81.4141 173.562C81.2448 173.68 81.1146 173.849 81.0234 174.07C80.9349 174.292 80.8906 174.56 80.8906 174.875V174.883C80.8906 175.195 80.9349 175.462 81.0234 175.684C81.1146 175.905 81.2448 176.076 81.4141 176.195C81.5833 176.312 81.7891 176.371 82.0312 176.371ZM86.5898 177.082C86.2487 177.082 85.9518 177.033 85.6992 176.934C85.4466 176.832 85.2461 176.693 85.0977 176.516C84.9492 176.336 84.862 176.128 84.8359 175.891V175.883H85.6875V175.891C85.7422 176.049 85.8464 176.178 86 176.277C86.1536 176.376 86.3568 176.426 86.6094 176.426C86.7839 176.426 86.9362 176.401 87.0664 176.352C87.1992 176.302 87.3034 176.233 87.3789 176.145C87.4544 176.056 87.4922 175.954 87.4922 175.84V175.832C87.4922 175.699 87.4388 175.587 87.332 175.496C87.2253 175.405 87.0495 175.331 86.8047 175.273L86.125 175.117C85.8594 175.057 85.6393 174.975 85.4648 174.871C85.2904 174.767 85.1615 174.639 85.0781 174.488C84.9948 174.335 84.9531 174.155 84.9531 173.949V173.945C84.9531 173.698 85.0234 173.479 85.1641 173.289C85.3047 173.096 85.4987 172.947 85.7461 172.84C85.9961 172.73 86.2812 172.676 86.6016 172.676C86.9245 172.676 87.2057 172.727 87.4453 172.828C87.6875 172.927 87.8789 173.065 88.0195 173.242C88.1602 173.417 88.2435 173.62 88.2695 173.852V173.855H87.457V173.848C87.418 173.699 87.3242 173.576 87.1758 173.477C87.0299 173.378 86.8372 173.328 86.5977 173.328C86.444 173.328 86.3073 173.353 86.1875 173.402C86.0677 173.449 85.9727 173.516 85.9023 173.602C85.8346 173.685 85.8008 173.784 85.8008 173.898V173.906C85.8008 173.995 85.8229 174.073 85.8672 174.141C85.9141 174.206 85.987 174.264 86.0859 174.316C86.1849 174.366 86.3125 174.41 86.4688 174.449L87.1445 174.602C87.5508 174.698 87.8529 174.837 88.0508 175.02C88.2513 175.202 88.3516 175.447 88.3516 175.754V175.762C88.3516 176.022 88.2747 176.253 88.1211 176.453C87.9674 176.651 87.7578 176.806 87.4922 176.918C87.2292 177.027 86.9284 177.082 86.5898 177.082ZM90.5234 177.07C90.2552 177.07 90.0143 177.02 89.8008 176.918C89.5898 176.814 89.4232 176.667 89.3008 176.477C89.1784 176.286 89.1172 176.064 89.1172 175.809V175.801C89.1172 175.546 89.1784 175.328 89.3008 175.148C89.4258 174.969 89.6055 174.828 89.8398 174.727C90.0768 174.622 90.3633 174.56 90.6992 174.539L92.2656 174.445V175.043L90.8164 175.137C90.5247 175.155 90.3099 175.217 90.1719 175.324C90.0339 175.428 89.9648 175.576 89.9648 175.766V175.773C89.9648 175.966 90.0391 176.118 90.1875 176.23C90.3359 176.34 90.5234 176.395 90.75 176.395C90.9609 176.395 91.1484 176.353 91.3125 176.27C91.4792 176.184 91.6094 176.069 91.7031 175.926C91.7969 175.78 91.8438 175.616 91.8438 175.434V174.098C91.8438 173.863 91.7708 173.685 91.625 173.562C91.4818 173.438 91.2682 173.375 90.9844 173.375C90.7474 173.375 90.5534 173.417 90.4023 173.5C90.2539 173.583 90.1549 173.701 90.1055 173.852L90.0977 173.863H89.2812L89.2852 173.836C89.319 173.602 89.4115 173.398 89.5625 173.227C89.7161 173.052 89.9167 172.917 90.1641 172.82C90.4141 172.724 90.6992 172.676 91.0195 172.676C91.3763 172.676 91.6784 172.733 91.9258 172.848C92.1758 172.96 92.3646 173.122 92.4922 173.336C92.6224 173.547 92.6875 173.801 92.6875 174.098V177H91.8438V176.398H91.7812C91.6979 176.542 91.5938 176.664 91.4688 176.766C91.3438 176.865 91.2018 176.94 91.043 176.992C90.8841 177.044 90.7109 177.07 90.5234 177.07ZM93.9219 177V171.094H94.7695V177H93.9219ZM96.6836 177.062C96.5221 177.062 96.3854 177.007 96.2734 176.895C96.1641 176.783 96.1094 176.648 96.1094 176.492C96.1094 176.331 96.1641 176.195 96.2734 176.086C96.3854 175.977 96.5221 175.922 96.6836 175.922C96.8477 175.922 96.9844 175.977 97.0938 176.086C97.2031 176.195 97.2578 176.331 97.2578 176.492C97.2578 176.648 97.2031 176.783 97.0938 176.895C96.9844 177.007 96.8477 177.062 96.6836 177.062Z" fill="#4968A9"/>
<defs>
<filter id="filter0_dd_104_29" x="-6" y="0" width="385" height="248" filterUnits="userSpaceOnUse" color-interpolation-filters="sRGB">
<feFlood flood-opacity="0" result="BackgroundImageFix"/>
<feColorMatrix in="SourceAlpha" type="matrix" values="0 0 0 0 0 0 0 0 0 0 0 0 0 0 0 0 0 0 127 0" result="hardAlpha"/>
<feMorphology radius="6" operator="erode" in="SourceAlpha" result="effect1_dropShadow_104_29"/>
<feOffset dy="8"/>
<feGaussianBlur stdDeviation="5"/>
<feComposite in2="hardAlpha" operator="out"/>
<feColorMatrix type="matrix" values="0 0 0 0 0 0 0 0 0 0 0 0 0 0 0 0 0 0 0.1 0"/>
<feBlend mode="normal" in2="BackgroundImageFix" result="effect1_dropShadow_104_29"/>
<feColorMatrix in="SourceAlpha" type="matrix" values="0 0 0 0 0 0 0 0 0 0 0 0 0 0 0 0 0 0 127 0" result="hardAlpha"/>
<feMorphology radius="5" operator="erode" in="SourceAlpha" result="effect2_dropShadow_104_29"/>
<feOffset dy="20"/>
<feGaussianBlur stdDeviation="12.5"/>
<feComposite in2="hardAlpha" operator="out"/>
<feColorMatrix type="matrix" values="0 0 0 0 0 0 0 0 0 0 0 0 0 0 0 0 0 0 0.1 0"/>
<feBlend mode="normal" in2="effect1_dropShadow_104_29" result="effect2_dropShadow_104_29"/>
<feBlend mode="normal" in="SourceGraphic" in2="effect2_dropShadow_104_29" result="shape"/>
</filter>
<clipPath id="clip0_104_29">
<rect width="16" height="16" fill="white" transform="translate(47 137)"/>
</clipPath>
</defs>
</svg>
