<svg width="32" height="32" viewBox="0 0 32 32" fill="none" xmlns="http://www.w3.org/2000/svg">
<path d="M14.6894 3.75198C14.7466 3.44612 14.9089 3.16987 15.1482 2.97107C15.3876 2.77227 15.6889 2.66345 16.0001 2.66345C16.3113 2.66345 16.6126 2.77227 16.852 2.97107C17.0913 3.16987 17.2536 3.44612 17.3108 3.75198L18.7121 11.1626C18.8116 11.6895 19.0677 12.1741 19.4468 12.5533C19.8259 12.9324 20.3106 13.1885 20.8374 13.288L28.2481 14.6893C28.554 14.7464 28.8302 14.9087 29.029 15.1481C29.2278 15.3875 29.3366 15.6888 29.3366 16C29.3366 16.3111 29.2278 16.6125 29.029 16.8518C28.8302 17.0912 28.554 17.2535 28.2481 17.3106L20.8374 18.712C20.3106 18.8115 19.8259 19.0675 19.4468 19.4467C19.0677 19.8258 18.8116 20.3104 18.7121 20.8373L17.3108 28.248C17.2536 28.5538 17.0913 28.8301 16.852 29.0289C16.6126 29.2277 16.3113 29.3365 16.0001 29.3365C15.6889 29.3365 15.3876 29.2277 15.1482 29.0289C14.9089 28.8301 14.7466 28.5538 14.6894 28.248L13.2881 20.8373C13.1886 20.3104 12.9325 19.8258 12.5534 19.4467C12.1743 19.0675 11.6896 18.8115 11.1628 18.712L3.7521 17.3106C3.44624 17.2535 3.16999 17.0912 2.97119 16.8518C2.7724 16.6125 2.66357 16.3111 2.66357 16C2.66357 15.6888 2.7724 15.3875 2.97119 15.1481C3.16999 14.9087 3.44624 14.7464 3.7521 14.6893L11.1628 13.288C11.6896 13.1885 12.1743 12.9324 12.5534 12.5533C12.9325 12.1741 13.1886 11.6895 13.2881 11.1626L14.6894 3.75198Z" stroke="#2B7FFF" stroke-width="2.66667" stroke-linecap="round" stroke-linejoin="round"/>
<path d="M26.6665 2.66669V8.00002" stroke="#2B7FFF" stroke-width="2.66667" stroke-linecap="round" stroke-linejoin="round"/>
<path d="M29.3333 5.33331H24" stroke="#2B7FFF" stroke-width="2.66667" stroke-linecap="round" stroke-linejoin="round"/>
<path d="M5.33317 29.3333C6.80593 29.3333 7.99984 28.1394 7.99984 26.6667C7.99984 25.1939 6.80593 24 5.33317 24C3.86041 24 2.6665 25.1939 2.6665 26.6667C2.6665 28.1394 3.86041 29.3333 5.33317 29.3333Z" stroke="#2B7FFF" stroke-width="2.66667" stroke-linecap="round" stroke-linejoin="round"/>
</svg>
