<svg width="12" height="19" viewBox="0 0 12 19" fill="none" xmlns="http://www.w3.org/2000/svg">
<path d="M4.70715 17L4.00005 17.7071L4.70715 18.4142L5.41426 17.7071L4.70715 17ZM10.7072 2C11.2594 2 11.7072 1.55228 11.7072 1C11.7072 0.447715 11.2594 -4.61255e-07 10.7072 -4.37114e-07L10.7072 2ZM4.64073e-05 13.7071L4.00005 17.7071L5.41426 16.2929L1.41426 12.2929L4.64073e-05 13.7071ZM5.41426 17.7071L9.41426 13.7071L8.00005 12.2929L4.00005 16.2929L5.41426 17.7071ZM5.70715 17L5.70715 5L3.70715 5L3.70715 17L5.70715 17ZM8.70715 2L10.7072 2L10.7072 -4.37114e-07L8.70715 -3.49691e-07L8.70715 2ZM5.70715 5C5.70715 3.34315 7.0503 2 8.70715 2L8.70715 -3.49691e-07C5.94573 -2.28985e-07 3.70715 2.23858 3.70715 5L5.70715 5Z" fill="#33363F"/>
</svg>
